<svg width="200" height="220" viewBox="0 0 200 220" fill="none" xmlns="http://www.w3.org/2000/svg">
<mask id="mask0_11_1902" style="mask-type:luminance" maskUnits="userSpaceOnUse" x="0" y="0" width="200" height="220">
<path d="M0 0H200V219.457H0V0Z" fill="white"/>
</mask>
<g mask="url(#mask0_11_1902)">
<mask id="mask1_11_1902" style="mask-type:luminance" maskUnits="userSpaceOnUse" x="0" y="0" width="200" height="220">
<path d="M109.832 219.455C93.8986 219.455 78.1369 216 63.8246 209.413C91.9826 208.626 114.645 185.492 114.645 157.165C114.645 133.661 133.784 114.534 157.311 114.534C180.847 114.534 199.996 133.661 199.996 157.169C199.996 168.559 195.553 179.264 187.484 187.316C187.234 187.564 186.987 187.814 186.657 188.125C166.016 208.327 138.728 219.45 109.823 219.45L109.832 219.455ZM62.3375 199.814C61.6423 199.814 60.9447 199.795 60.2565 199.765C60.0067 199.75 59.7569 199.732 59.5094 199.715L59.1512 199.687L58.8024 199.666C58.5974 199.651 58.3994 199.637 58.1991 199.618C57.7113 199.574 57.2258 199.51 56.7426 199.449L56.1818 199.38C55.6326 199.298 55.0859 199.204 54.5368 199.105L54.1833 199.046C53.5988 198.933 53.019 198.805 52.444 198.669L52.213 198.619C51.6168 198.475 51.0276 198.318 50.4384 198.146L50.2664 198.101C49.6749 197.929 49.0904 197.738 48.4918 197.535L48.348 197.483C47.7777 197.285 47.2074 197.073 46.6394 196.852L46.4509 196.779C45.9065 196.562 45.3691 196.331 44.8436 196.09L44.5749 195.973C44.0729 195.742 43.5757 195.499 43.0808 195.249L42.7273 195.072C42.2701 194.839 41.8176 194.589 41.3651 194.332L40.9079 194.073C40.5002 193.837 40.0972 193.59 39.6989 193.335L39.1238 192.975C38.7703 192.744 38.4168 192.504 38.068 192.263C37.8371 192.101 37.6085 191.943 37.3775 191.775C37.0735 191.554 36.7742 191.332 36.4749 191.101C36.2086 190.899 35.9399 190.689 35.6783 190.477C35.4214 190.274 35.1716 190.062 34.9171 189.852C34.6225 189.605 34.3303 189.35 34.0357 189.093C33.8165 188.903 33.6044 188.709 33.3923 188.509C32.9752 188.125 32.558 187.736 32.1244 187.302C31.884 187.062 31.6389 186.817 31.349 186.51C11.1331 165.873 0 138.61 0 109.731C0 93.8114 3.4573 78.0591 10.0514 63.7609C10.1409 66.8647 10.4897 69.9002 11.0931 72.8084C11.6045 75.3041 12.3091 77.8022 13.1976 80.2273C13.4969 81.0357 13.8127 81.8417 14.1521 82.6476C14.3288 83.0624 14.5009 83.456 14.6729 83.8331C14.845 84.2172 15.0123 84.5825 15.1937 84.9596C15.9856 86.5787 16.7751 88.0257 17.6023 89.3879C27.1989 105.133 43.9245 114.539 62.3469 114.539C85.874 114.539 105.013 133.661 105.013 157.169C105.013 180.685 85.8693 199.814 62.3375 199.814ZM157.311 104.916C145.914 104.916 135.195 100.483 127.142 92.4327C119.087 84.3798 114.645 73.6756 114.645 62.2903C114.645 57.9469 115.288 53.6813 116.563 49.6112C116.754 49.0055 116.966 48.3763 117.19 47.7565L115.727 47.2309L117.235 47.6245C119.874 40.4224 124.442 34.0404 130.442 29.1691C130.89 28.8061 131.342 28.4479 131.809 28.1015C132.308 27.7244 132.846 27.3403 133.463 26.9278C133.902 26.6309 134.345 26.341 134.792 26.0653C140.477 22.5326 147.024 20.3691 153.724 19.8035C154.978 19.6998 156.187 19.6503 157.374 19.6503C158.063 19.6503 158.746 19.6691 159.425 19.6998L159.847 19.7328C160.393 19.7634 160.942 19.7988 161.48 19.8506C161.706 19.8718 161.93 19.9001 162.156 19.926L162.802 20.0038C163.038 20.0297 163.273 20.058 163.504 20.0886C163.872 20.1428 164.232 20.2065 164.6 20.2701L165.081 20.3526C165.22 20.3738 165.366 20.4021 165.505 20.428C165.986 20.5246 166.462 20.6283 166.936 20.7367L167.48 20.8593C167.982 20.9795 168.482 21.1162 168.979 21.2552L169.427 21.3778C169.933 21.5286 170.433 21.6912 170.93 21.8585L171.357 21.9976C171.845 22.1696 172.335 22.3511 172.818 22.542L173.259 22.7093C173.723 22.8931 174.18 23.0935 174.64 23.2961L175.137 23.5177C175.566 23.718 175.988 23.9254 176.41 24.1328L176.994 24.4274C177.378 24.6253 177.758 24.8398 178.22 25.0967C178.42 25.2098 178.618 25.3182 178.818 25.436C179.153 25.6316 179.487 25.839 179.817 26.0417C180.081 26.2043 180.348 26.3716 180.607 26.539C180.897 26.7299 181.182 26.9255 181.462 27.114C181.762 27.3214 182.063 27.5311 182.358 27.748C182.598 27.92 182.834 28.1015 183.07 28.2782C183.4 28.5304 183.73 28.7826 184.057 29.0465C184.25 29.2044 184.446 29.367 184.642 29.5296C184.993 29.8242 185.342 30.1282 185.69 30.4346L186.181 30.8777C186.624 31.2854 187.062 31.6978 187.489 32.1267C195.52 40.1514 199.958 50.8179 199.986 62.2173L199.991 62.354C199.944 85.8174 180.795 104.907 157.306 104.907L157.311 104.916ZM62.3422 104.916C47.3111 104.916 33.6586 97.2404 25.8249 84.3845C25.1509 83.2793 24.5122 82.0985 23.8688 80.7882C23.5931 80.2085 23.3126 79.5792 23.0133 78.8793C21.9175 76.2822 21.0808 73.5908 20.5246 70.8711C19.9567 68.1303 19.6644 65.2362 19.655 62.2809C19.655 61.5857 19.6715 60.8881 19.7045 60.1999C19.7186 59.9478 19.7351 59.6932 19.7587 59.4411L19.8082 58.7623C19.8223 58.5573 19.8365 58.3499 19.853 58.1472C19.8978 57.6665 19.9614 57.1881 20.025 56.6908L20.0934 56.1252C20.1758 55.5737 20.2701 55.0246 20.3691 54.4731L20.428 54.129C20.5411 53.5422 20.6684 52.9577 20.8098 52.3756L20.8593 52.1612C21.0031 51.5602 21.1657 50.964 21.3377 50.3748L21.3801 50.2216C21.5569 49.6254 21.7454 49.0315 21.9457 48.447L21.9905 48.3032C22.1908 47.7235 22.4077 47.1508 22.6386 46.5758L22.7022 46.4084C22.9238 45.857 23.1594 45.3126 23.4045 44.7705L23.5082 44.5348C23.7439 44.0234 23.9914 43.5167 24.2459 43.0148L24.4085 42.6895C24.6489 42.2229 24.9011 41.761 25.165 41.3061L25.4101 40.8702C25.6481 40.4554 25.9027 40.0477 26.2114 39.5598L26.5083 39.0885C26.744 38.7255 26.9891 38.3697 27.2342 38.0162C27.3921 37.7899 27.5453 37.5637 27.7103 37.3422C27.9318 37.0358 28.1628 36.7318 28.3937 36.4277C28.5964 36.1662 28.8014 35.9046 29.0088 35.6406C29.2162 35.379 29.4307 35.1268 29.6428 34.8723C29.8926 34.5777 30.14 34.2855 30.3993 33.9956C30.5902 33.7835 30.7834 33.5643 30.979 33.3569C31.3632 32.9398 31.752 32.525 32.1597 32.122C32.4096 31.8722 32.6594 31.62 32.9846 31.3113C53.6318 11.1284 80.9155 0.00471313 109.832 0C125.769 0 141.535 3.45494 155.847 10.042C155.032 10.0655 154.214 10.1056 153.408 10.1692C145.226 10.7796 137.203 13.3437 130.206 17.5976C129.492 18.0312 128.78 18.479 128.083 18.9456C127.355 19.4335 126.657 19.926 126.023 20.4068C125.589 20.732 125.163 21.0667 124.741 21.4013C120.991 24.3873 117.668 27.8658 114.871 31.7473C112.811 34.6013 111.044 37.6462 109.623 40.8042C109.102 41.9519 108.619 43.1373 108.178 44.3369L107.985 44.8978C107.775 45.4893 107.568 46.0997 107.363 46.7478C105.802 51.7417 105.013 56.9712 105.013 62.2903C105.013 85.7962 85.874 104.916 62.3469 104.916H62.3422Z" fill="white"/>
</mask>
<g mask="url(#mask1_11_1902)">
<path d="M-73.8638 190.934L174.003 286.645L273.861 28.5229L25.9946 -67.1904L-73.8638 190.934Z" fill="url(#paint0_linear_11_1902)"/>
</g>
</g>
<defs>
<linearGradient id="paint0_linear_11_1902" x1="55.9424" y1="241.057" x2="155.64" y2="-17.1289" gradientUnits="userSpaceOnUse">
<stop stop-color="#F35418"/>
<stop offset="0.125" stop-color="#F35418"/>
<stop offset="0.140625" stop-color="#F35418"/>
<stop offset="0.144531" stop-color="#F35518"/>
<stop offset="0.148438" stop-color="#F35618"/>
<stop offset="0.152344" stop-color="#F35618"/>
<stop offset="0.15625" stop-color="#F35719"/>
<stop offset="0.160156" stop-color="#F35719"/>
<stop offset="0.164062" stop-color="#F35819"/>
<stop offset="0.167969" stop-color="#F35819"/>
<stop offset="0.171875" stop-color="#F35919"/>
<stop offset="0.175781" stop-color="#F35A19"/>
<stop offset="0.179688" stop-color="#F35A19"/>
<stop offset="0.183594" stop-color="#F35B19"/>
<stop offset="0.1875" stop-color="#F35B19"/>
<stop offset="0.191406" stop-color="#F45C19"/>
<stop offset="0.195312" stop-color="#F45C1A"/>
<stop offset="0.199219" stop-color="#F45D1A"/>
<stop offset="0.203125" stop-color="#F45E1A"/>
<stop offset="0.207031" stop-color="#F45E1A"/>
<stop offset="0.210938" stop-color="#F45F1A"/>
<stop offset="0.214844" stop-color="#F45F1A"/>
<stop offset="0.21875" stop-color="#F4601A"/>
<stop offset="0.222656" stop-color="#F4601A"/>
<stop offset="0.226563" stop-color="#F4611A"/>
<stop offset="0.230469" stop-color="#F4621B"/>
<stop offset="0.234375" stop-color="#F4621B"/>
<stop offset="0.238281" stop-color="#F4631B"/>
<stop offset="0.242188" stop-color="#F4631B"/>
<stop offset="0.246094" stop-color="#F4641B"/>
<stop offset="0.25" stop-color="#F4641B"/>
<stop offset="0.253906" stop-color="#F4651B"/>
<stop offset="0.257812" stop-color="#F4661B"/>
<stop offset="0.261719" stop-color="#F4661B"/>
<stop offset="0.265625" stop-color="#F4671C"/>
<stop offset="0.269531" stop-color="#F4671C"/>
<stop offset="0.273438" stop-color="#F4681C"/>
<stop offset="0.277344" stop-color="#F4681C"/>
<stop offset="0.28125" stop-color="#F4691C"/>
<stop offset="0.285156" stop-color="#F46A1C"/>
<stop offset="0.289062" stop-color="#F46A1C"/>
<stop offset="0.292969" stop-color="#F56B1C"/>
<stop offset="0.296875" stop-color="#F56B1C"/>
<stop offset="0.300781" stop-color="#F56C1D"/>
<stop offset="0.304688" stop-color="#F56D1D"/>
<stop offset="0.308594" stop-color="#F56D1D"/>
<stop offset="0.3125" stop-color="#F56E1D"/>
<stop offset="0.316406" stop-color="#F56E1D"/>
<stop offset="0.320312" stop-color="#F56F1D"/>
<stop offset="0.324219" stop-color="#F56F1D"/>
<stop offset="0.328125" stop-color="#F5701D"/>
<stop offset="0.332031" stop-color="#F5711D"/>
<stop offset="0.335938" stop-color="#F5711E"/>
<stop offset="0.339844" stop-color="#F5721E"/>
<stop offset="0.34375" stop-color="#F5721E"/>
<stop offset="0.347656" stop-color="#F5731E"/>
<stop offset="0.351563" stop-color="#F5731E"/>
<stop offset="0.355469" stop-color="#F5741E"/>
<stop offset="0.359375" stop-color="#F5751E"/>
<stop offset="0.363281" stop-color="#F5751E"/>
<stop offset="0.367188" stop-color="#F5761E"/>
<stop offset="0.371094" stop-color="#F5761F"/>
<stop offset="0.375" stop-color="#F5771F"/>
<stop offset="0.378906" stop-color="#F5771F"/>
<stop offset="0.382812" stop-color="#F5781F"/>
<stop offset="0.386719" stop-color="#F5791F"/>
<stop offset="0.390625" stop-color="#F6791F"/>
<stop offset="0.394531" stop-color="#F67A1F"/>
<stop offset="0.398438" stop-color="#F67A1F"/>
<stop offset="0.402344" stop-color="#F67B1F"/>
<stop offset="0.40625" stop-color="#F67B20"/>
<stop offset="0.410156" stop-color="#F67C20"/>
<stop offset="0.414062" stop-color="#F67D20"/>
<stop offset="0.417969" stop-color="#F67D20"/>
<stop offset="0.421875" stop-color="#F67E20"/>
<stop offset="0.425781" stop-color="#F67E20"/>
<stop offset="0.429688" stop-color="#F67F20"/>
<stop offset="0.433594" stop-color="#F67F20"/>
<stop offset="0.4375" stop-color="#F68020"/>
<stop offset="0.441406" stop-color="#F68121"/>
<stop offset="0.445313" stop-color="#F68121"/>
<stop offset="0.449219" stop-color="#F68221"/>
<stop offset="0.453125" stop-color="#F68221"/>
<stop offset="0.457031" stop-color="#F68321"/>
<stop offset="0.460938" stop-color="#F68421"/>
<stop offset="0.464844" stop-color="#F68421"/>
<stop offset="0.46875" stop-color="#F68521"/>
<stop offset="0.472656" stop-color="#F68521"/>
<stop offset="0.476562" stop-color="#F68622"/>
<stop offset="0.480469" stop-color="#F68622"/>
<stop offset="0.484375" stop-color="#F68722"/>
<stop offset="0.488281" stop-color="#F68822"/>
<stop offset="0.492188" stop-color="#F78822"/>
<stop offset="0.496094" stop-color="#F78922"/>
<stop offset="0.5" stop-color="#F78922"/>
<stop offset="0.503906" stop-color="#F78A22"/>
<stop offset="0.507813" stop-color="#F78A22"/>
<stop offset="0.511719" stop-color="#F78B23"/>
<stop offset="0.515625" stop-color="#F78C23"/>
<stop offset="0.519531" stop-color="#F78C23"/>
<stop offset="0.523438" stop-color="#F78D23"/>
<stop offset="0.527344" stop-color="#F78D23"/>
<stop offset="0.53125" stop-color="#F78E23"/>
<stop offset="0.535156" stop-color="#F78E23"/>
<stop offset="0.539062" stop-color="#F78F23"/>
<stop offset="0.542969" stop-color="#F79023"/>
<stop offset="0.546875" stop-color="#F79023"/>
<stop offset="0.550781" stop-color="#F79124"/>
<stop offset="0.554688" stop-color="#F79124"/>
<stop offset="0.558594" stop-color="#F79224"/>
<stop offset="0.5625" stop-color="#F79224"/>
<stop offset="0.566406" stop-color="#F79324"/>
<stop offset="0.570312" stop-color="#F79424"/>
<stop offset="0.574219" stop-color="#F79424"/>
<stop offset="0.578125" stop-color="#F79524"/>
<stop offset="0.582031" stop-color="#F79524"/>
<stop offset="0.585938" stop-color="#F79625"/>
<stop offset="0.589844" stop-color="#F79625"/>
<stop offset="0.59375" stop-color="#F89725"/>
<stop offset="0.597656" stop-color="#F89825"/>
<stop offset="0.601562" stop-color="#F89825"/>
<stop offset="0.605469" stop-color="#F89925"/>
<stop offset="0.609375" stop-color="#F89925"/>
<stop offset="0.613281" stop-color="#F89A25"/>
<stop offset="0.617188" stop-color="#F89A25"/>
<stop offset="0.621094" stop-color="#F89B26"/>
<stop offset="0.625" stop-color="#F89C26"/>
<stop offset="0.628906" stop-color="#F89C26"/>
<stop offset="0.632812" stop-color="#F89D26"/>
<stop offset="0.636719" stop-color="#F89D26"/>
<stop offset="0.640625" stop-color="#F89E26"/>
<stop offset="0.644531" stop-color="#F89F26"/>
<stop offset="0.648438" stop-color="#F89F26"/>
<stop offset="0.652344" stop-color="#F8A026"/>
<stop offset="0.65625" stop-color="#F8A027"/>
<stop offset="0.660156" stop-color="#F8A127"/>
<stop offset="0.664062" stop-color="#F8A127"/>
<stop offset="0.667969" stop-color="#F8A227"/>
<stop offset="0.671875" stop-color="#F8A327"/>
<stop offset="0.675781" stop-color="#F8A327"/>
<stop offset="0.679688" stop-color="#F8A427"/>
<stop offset="0.683594" stop-color="#F8A427"/>
<stop offset="0.6875" stop-color="#F8A527"/>
<stop offset="0.691406" stop-color="#F8A528"/>
<stop offset="0.695313" stop-color="#F9A628"/>
<stop offset="0.699219" stop-color="#F9A728"/>
<stop offset="0.703125" stop-color="#F9A728"/>
<stop offset="0.707031" stop-color="#F9A828"/>
<stop offset="0.710938" stop-color="#F9A828"/>
<stop offset="0.714844" stop-color="#F9A928"/>
<stop offset="0.71875" stop-color="#F9A928"/>
<stop offset="0.722656" stop-color="#F9AA28"/>
<stop offset="0.726562" stop-color="#F9AB29"/>
<stop offset="0.730469" stop-color="#F9AB29"/>
<stop offset="0.734375" stop-color="#F9AC29"/>
<stop offset="0.738281" stop-color="#F9AC29"/>
<stop offset="0.742188" stop-color="#F9AD29"/>
<stop offset="0.75" stop-color="#F9AD29"/>
<stop offset="1" stop-color="#F9AD29"/>
</linearGradient>
</defs>
</svg>
