<svg width="32" height="32" viewBox="0 0 32 32" fill="none" xmlns="http://www.w3.org/2000/svg">
<g clip-path="url(#clip0_48_485)">
<path d="M31.8332 1.32934L31.7078 0.292006L30.6705 0.166673C30.0958 0.0960059 16.5078 -1.45333 8.85983 6.19467C2.06383 12.9907 2.53183 24.468 2.76917 27.3453L0.027832 30.0853L1.91317 31.9707L4.65317 29.2307C5.2625 29.28 6.25183 29.34 7.49717 29.34C12.1678 29.34 20.4438 28.4987 25.8052 23.1387C33.4545 15.4907 31.9038 1.90401 31.8332 1.32934ZM28.2345 13.3333H20.5518L29.3238 4.56134C29.3345 6.80267 29.1385 10.0547 28.2345 13.3333ZM13.8852 20L17.8852 16H27.3198C26.7332 17.4133 25.9825 18.7747 25.0198 20H13.8852ZM11.9998 6.98001C13.2265 6.01601 14.5865 5.26667 15.9998 4.68001V14.1147L11.9998 18.1147V6.98001ZM27.4372 2.67734L18.6665 11.448V3.76534C21.9452 2.86134 25.1958 2.66801 27.4372 2.67734ZM9.33317 9.76134V20.7813L5.3425 24.772C5.32517 21.044 5.86917 14.508 9.33317 9.76134ZM7.22917 26.656L11.2185 22.6667H22.2385C17.4905 26.1307 10.9572 26.6733 7.22917 26.656Z" fill="black"/>
</g>
<defs>
<clipPath id="clip0_48_485">
<rect width="32" height="32" fill="white"/>
</clipPath>
</defs>
</svg>
