<svg width="32" height="32" viewBox="0 0 32 32" fill="none" xmlns="http://www.w3.org/2000/svg">
<path d="M16.7548 32H11.6254L14.2921 21.3333H8.78142C8.24885 21.3331 7.72372 21.2083 7.24799 20.9689C6.77225 20.7296 6.3591 20.3822 6.04156 19.9547C5.72401 19.5271 5.51087 19.0313 5.41917 18.5066C5.32746 17.982 5.35974 17.4432 5.51342 16.9333L10.6348 0H23.2574L19.2574 10.6667H24.6214C25.2317 10.6671 25.8305 10.8328 26.3541 11.1463C26.8777 11.4598 27.3066 11.9093 27.5952 12.4471C27.8838 12.9848 28.0212 13.5907 27.993 14.2003C27.9647 14.81 27.7718 15.4006 27.4348 15.9093L16.7548 32ZM15.0414 29.3333H15.3241L25.2121 14.4347C25.2829 14.3278 25.3235 14.2038 25.3295 14.0757C25.3354 13.9477 25.3066 13.8204 25.246 13.7074C25.1854 13.5944 25.0954 13.5 24.9854 13.4341C24.8754 13.3683 24.7496 13.3334 24.6214 13.3333H15.4094L19.4094 2.66667H12.6134L8.06542 17.7013C8.03147 17.8131 8.02418 17.9313 8.04414 18.0465C8.06411 18.1616 8.11076 18.2704 8.18037 18.3643C8.24997 18.4581 8.3406 18.5344 8.44497 18.5869C8.54935 18.6394 8.66458 18.6667 8.78142 18.6667H17.7148L15.0414 29.3333Z" fill="black"/>
</svg>
