<svg width="32" height="32" viewBox="0 0 32 32" fill="none" xmlns="http://www.w3.org/2000/svg">
<g clip-path="url(#clip0_74_898)">
<path d="M19.656 24.2692C19.5462 24.2692 19.4354 24.2478 19.3314 24.206L14.6501 22.3188C14.3197 22.1856 14.1059 21.8698 14.1059 21.5131V15.6472C14.1059 15.2906 14.3197 14.9747 14.6501 14.8416L19.3314 12.9543C19.5413 12.8698 19.7706 12.8698 19.9806 12.9543L24.6628 14.8416C24.9932 14.9747 25.207 15.2906 25.207 15.6472V21.5131C25.207 21.8698 24.9932 22.1856 24.6628 22.3188L19.9815 24.206C19.8766 24.2478 19.7658 24.2692 19.656 24.2692ZM15.2964 21.2964L19.656 23.0534L24.0155 21.2964V15.8649L19.656 14.1079L15.2964 15.8649V21.2964Z" fill="#F5621C"/>
<path d="M19.656 24.2896C19.3275 24.2896 19.0612 24.0233 19.0612 23.6948V17.861L14.4791 16.0136C14.174 15.8912 14.0262 15.5442 14.1497 15.2391C14.2731 14.9339 14.619 14.7862 14.9242 14.9096L19.8795 16.9067C20.105 16.9971 20.2517 17.2157 20.2517 17.4587V23.6939C20.2517 24.0224 19.9844 24.2896 19.656 24.2896Z" fill="#F5621C"/>
<path d="M19.656 24.2896C19.3275 24.2896 19.0612 24.0233 19.0612 23.6948L19.0612 17.4597C19.0612 17.2167 19.2089 16.9981 19.4334 16.9077L24.3887 14.9106C24.6939 14.7872 25.0398 14.9349 25.1633 15.24C25.2857 15.5452 25.139 15.8912 24.8338 16.0146L20.2517 17.862V23.6958C20.2517 24.0243 19.9844 24.2896 19.656 24.2896Z" fill="#F5621C"/>
<path d="M12.3431 20.1516C12.2352 20.1516 12.1273 20.1312 12.0253 20.0914L7.33819 18.2021C7.0068 18.0671 6.79398 17.7512 6.79398 17.3965V11.5296C6.79398 11.1749 7.0068 10.8591 7.33625 10.725L12.0194 8.83771C12.2313 8.7551 12.4577 8.7551 12.6628 8.83576L17.3508 10.725C17.6822 10.8601 17.895 11.1759 17.895 11.5306V14.415C17.895 14.7434 17.6288 15.0097 17.3003 15.0097C16.9718 15.0097 16.7055 14.7434 16.7055 14.415V11.7473L12.345 9.99028L7.98445 11.7473V17.1798L12.345 18.9368L14.4791 18.0758C14.7843 17.9534 15.1302 18.1001 15.2536 18.4052C15.3761 18.7104 15.2293 19.0564 14.9242 19.1798L12.6696 20.0884C12.5637 20.1302 12.4529 20.1516 12.3431 20.1516Z" fill="#F5621C"/>
<path d="M12.344 20.174C12.0155 20.174 11.7493 19.9077 11.7493 19.5792V13.7454L7.16715 11.898C6.862 11.7755 6.71429 11.4286 6.83771 11.1234C6.96016 10.8183 7.3071 10.6706 7.61225 10.794L12.5675 12.7911C12.793 12.8814 12.9397 13.1001 12.9397 13.3431V19.5782C12.9397 19.9067 12.6725 20.174 12.344 20.174Z" fill="#F5621C"/>
<path d="M12.344 20.174C12.0155 20.174 11.7493 19.9077 11.7493 19.5792L11.7493 13.344C11.7493 13.1011 11.897 12.8824 12.1215 12.792L17.0768 10.7949C17.3819 10.6725 17.7279 10.8192 17.8513 11.1244C17.9738 11.4295 17.827 11.7755 17.5219 11.8989L12.9397 13.7464V19.5802C12.9397 19.9086 12.6725 20.174 12.344 20.174Z" fill="#F5621C"/>
<path d="M16 1.1895C24.1798 1.1895 30.8105 7.82021 30.8105 16C30.8105 24.1798 24.1798 30.8105 16 30.8105C7.82021 30.8105 1.1895 24.1798 1.1895 16C1.1895 7.82021 7.82021 1.1895 16 1.1895ZM16 0C11.7259 0 7.70845 1.66472 4.6861 4.6861C1.66375 7.70845 0 11.7259 0 16C0 20.274 1.66472 24.2915 4.6861 27.3139C7.70845 30.3362 11.7259 32 16 32C20.274 32 24.2915 30.3353 27.3139 27.3139C30.3362 24.2915 32 20.274 32 16C32 11.7259 30.3353 7.70845 27.3139 4.6861C24.2915 1.66375 20.274 0 16 0Z" fill="#F5621C"/>
<path d="M20.827 11.7677C20.6744 11.7677 20.5228 11.7094 20.4062 11.5938C20.174 11.3615 20.174 10.9845 20.4062 10.7522L26.0515 5.1069C26.2838 4.87464 26.6608 4.87464 26.8931 5.1069C27.1254 5.33916 27.1254 5.71623 26.8931 5.94849L21.2478 11.5938C21.1312 11.7104 20.9796 11.7677 20.827 11.7677Z" fill="#F5621C"/>
<path d="M5.5277 27.0671C5.37512 27.0671 5.22352 27.0087 5.1069 26.8931C4.87464 26.6608 4.87464 26.2838 5.1069 26.0515L9.70943 21.449C9.94169 21.2167 10.3188 21.2167 10.551 21.449C10.7833 21.6812 10.7833 22.0583 10.551 22.2906L5.94849 26.8931C5.83188 27.0097 5.68027 27.0671 5.5277 27.0671Z" fill="#F5621C"/>
</g>
<defs>
<clipPath id="clip0_74_898">
<rect width="32" height="32" fill="white"/>
</clipPath>
</defs>
</svg>
