<svg width="32" height="32" viewBox="0 0 32 32" fill="none" xmlns="http://www.w3.org/2000/svg">
<g clip-path="url(#clip0_74_888)">
<path d="M8.50119 12.123C8.29184 12.123 8.08706 12.0212 7.9635 11.8324L5.15494 7.53554C4.96046 7.23924 5.04397 6.84113 5.34142 6.64779C5.63886 6.45446 6.03584 6.53682 6.23032 6.83426L9.03888 11.1311C9.23336 11.4274 9.14985 11.8255 8.85241 12.0189C8.74372 12.0898 8.62246 12.123 8.50119 12.123Z" fill="#E95724"/>
<path d="M5.42722 25.3133C5.30366 25.3133 5.17897 25.2779 5.068 25.2035C4.77398 25.0044 4.69734 24.6063 4.89639 24.3123L7.91774 19.845C8.1168 19.551 8.51492 19.4743 8.80893 19.6734C9.10295 19.8724 9.17959 20.2706 8.98054 20.5646L5.95919 25.0319C5.83563 25.2149 5.63314 25.3133 5.42722 25.3133Z" fill="#E95724"/>
<path d="M15.323 14.6306C15.0759 14.6306 14.8413 14.4876 14.7349 14.2474C14.5919 13.9225 14.7395 13.5438 15.0633 13.4008L17.984 12.1138C18.3077 11.9708 18.6875 12.1184 18.8305 12.4422C18.9735 12.7671 18.826 13.1457 18.5022 13.2887L15.5815 14.5757C15.4969 14.6123 15.4099 14.6306 15.323 14.6306Z" fill="#E95724"/>
<path d="M27.755 21.2144C27.4701 21.2144 27.2105 21.0233 27.1349 20.735L25.9681 16.2837C25.8777 15.9405 26.0836 15.5905 26.4268 15.5001C26.7689 15.4108 27.1201 15.6156 27.2105 15.9577L28.3774 20.409C28.4677 20.7522 28.2618 21.1022 27.9186 21.1926C27.8637 21.2075 27.8099 21.2144 27.755 21.2144Z" fill="#E95724"/>
<path d="M23.9386 5.07136C26.9725 5.07136 29.4401 7.53897 29.4401 10.5717C29.4401 13.6045 26.9725 16.0732 23.9386 16.0732C20.9046 16.0732 18.437 13.6056 18.437 10.5717C18.437 7.53783 20.9046 5.07136 23.9386 5.07136ZM23.9386 3.78779C20.1908 3.78779 17.1534 6.82511 17.1534 10.5717C17.1534 14.3183 20.1908 17.3568 23.9386 17.3568C27.6864 17.3568 30.7237 14.3206 30.7237 10.5717C30.7237 6.82283 27.6864 3.78779 23.9386 3.78779Z" fill="#E95724"/>
<path d="M4.07041 25.1417C5.60797 25.1417 6.85838 26.3921 6.85838 27.9296C6.85838 29.4672 5.60797 30.7164 4.07041 30.7164C2.53285 30.7164 1.28359 29.466 1.28359 27.9296C1.28359 26.3933 2.534 25.1417 4.07041 25.1417ZM4.07041 23.8581C1.82356 23.8581 0 25.6805 0 27.9296C0 30.1788 1.82356 32 4.07041 32C6.31726 32 8.14197 30.1753 8.14197 27.9296C8.14197 25.684 6.31841 23.8581 4.07041 23.8581Z" fill="#E95724"/>
<path d="M4.07041 1.28357C5.60797 1.28357 6.85838 2.53396 6.85838 4.0715C6.85838 5.60904 5.60797 6.85829 4.07041 6.85829C2.53285 6.85829 1.28359 5.60789 1.28359 4.0715C1.28359 2.53511 2.534 1.28357 4.07041 1.28357ZM4.07041 0C1.82356 0 0 1.82354 0 4.0715C0 6.31946 1.82356 8.14186 4.07041 8.14186C6.31726 8.14186 8.14197 6.31832 8.14197 4.0715C8.14197 1.82468 6.31841 0 4.07041 0Z" fill="#E95724"/>
<path d="M10.8556 11.8564C13.1413 11.8564 15.0004 13.7154 15.0004 16C15.0004 18.2846 13.1413 20.1436 10.8556 20.1436C8.56983 20.1436 6.71081 18.2846 6.71081 16C6.71081 13.7154 8.56983 11.8564 10.8556 11.8564ZM10.8556 10.5729C7.85826 10.5729 5.42722 13.0039 5.42722 16C5.42722 18.9961 7.85826 21.4283 10.8556 21.4283C13.8529 21.4283 16.2839 18.9973 16.2839 16C16.2839 13.0027 13.8529 10.5729 10.8556 10.5729Z" fill="#E95724"/>
<path d="M28.311 21.2304C28.8636 21.2304 29.3852 21.4146 29.8177 21.7612C30.8519 22.5929 31.0166 24.111 30.1849 25.1451C29.7261 25.716 29.0409 26.0432 28.3064 26.0432C27.7539 26.0432 27.2333 25.8601 26.8009 25.5124C25.7667 24.6807 25.602 23.1626 26.4337 22.1284C26.8936 21.5576 27.5765 21.2304 28.311 21.2304ZM28.311 19.9468C27.231 19.9468 26.1614 20.4181 25.4326 21.3253C24.1559 22.9132 24.4076 25.2367 25.9967 26.5145C26.6773 27.0625 27.4942 27.3279 28.3064 27.3279C29.3864 27.3279 30.456 26.8566 31.1859 25.9505C32.4626 24.3627 32.2098 22.038 30.6231 20.7613C29.9412 20.2134 29.1232 19.9468 28.311 19.9468Z" fill="#E95724"/>
</g>
<defs>
<clipPath id="clip0_74_888">
<rect width="32" height="32" fill="white"/>
</clipPath>
</defs>
</svg>
