<svg width="32" height="32" viewBox="0 0 32 32" fill="none" xmlns="http://www.w3.org/2000/svg">
<g clip-path="url(#clip0_63_332)">
<path d="M22.276 11.6093L17.8853 16L22.276 20.3907L20.3907 22.276L16 17.8853L11.6093 22.276L9.724 20.3907L14.1147 16L9.724 11.6093L11.6093 9.724L16 14.1147L20.3907 9.724L22.276 11.6093ZM32 16C32 24.8227 24.8227 32 16 32C7.17733 32 0 24.8227 0 16C0 7.17733 7.17733 0 16 0C24.8227 0 32 7.17733 32 16ZM29.3333 16C29.3333 8.648 23.352 2.66667 16 2.66667C8.648 2.66667 2.66667 8.648 2.66667 16C2.66667 23.352 8.648 29.3333 16 29.3333C23.352 29.3333 29.3333 23.352 29.3333 16Z" fill="black"/>
</g>
<defs>
<clipPath id="clip0_63_332">
<rect width="32" height="32" fill="white"/>
</clipPath>
</defs>
</svg>
