<svg width="32" height="32" viewBox="0 0 32 32" fill="none" xmlns="http://www.w3.org/2000/svg">
<g clip-path="url(#clip0_80_1698)">
<path d="M16 32C12.8355 32 9.74207 31.0616 7.11088 29.3035C4.4797 27.5454 2.42894 25.0466 1.21793 22.1229C0.00693258 19.1993 -0.309921 15.9823 0.307443 12.8786C0.924806 9.77487 2.44866 6.92394 4.6863 4.6863C6.92394 2.44866 9.77487 0.924806 12.8786 0.307443C15.9823 -0.309921 19.1993 0.00693258 22.1229 1.21793C25.0466 2.42894 27.5454 4.4797 29.3035 7.11088C31.0616 9.74207 32 12.8355 32 16C31.9954 20.2421 30.3082 24.3091 27.3087 27.3087C24.3091 30.3082 20.2421 31.9954 16 32ZM16 2.66667C13.3629 2.66667 10.7851 3.44866 8.5924 4.91375C6.39975 6.37883 4.69078 8.46121 3.68161 10.8976C2.67245 13.3339 2.4084 16.0148 2.92287 18.6012C3.43734 21.1876 4.70722 23.5634 6.57192 25.4281C8.43662 27.2928 10.8124 28.5627 13.3988 29.0771C15.9852 29.5916 18.6661 29.3276 21.1025 28.3184C23.5388 27.3092 25.6212 25.6003 27.0863 23.4076C28.5514 21.215 29.3333 18.6371 29.3333 16C29.3295 12.465 27.9235 9.07585 25.4238 6.5762C22.9242 4.07656 19.535 2.67056 16 2.66667Z" fill="black"/>
<path d="M16.0001 25.3334C14.4653 25.3332 12.9542 24.9546 11.6006 24.231C10.2471 23.5074 9.09287 22.4612 8.24022 21.185C7.38757 19.9088 6.8628 18.442 6.7124 16.9146C6.562 15.3872 6.79061 13.8462 7.37798 12.4282C7.96535 11.0102 8.89334 9.75898 10.0798 8.78529C11.2662 7.8116 12.6745 7.14552 14.1798 6.84606C15.6851 6.5466 17.2411 6.623 18.7098 7.06848C20.1786 7.51397 21.5148 8.31479 22.6001 9.40002L20.7148 11.2854C19.7824 10.3532 18.5945 9.71842 17.3013 9.46132C16.0082 9.20423 14.6678 9.33636 13.4498 9.84099C12.2317 10.3456 11.1906 11.2001 10.4581 12.2964C9.72567 13.3927 9.33472 14.6816 9.33472 16C9.33472 17.3185 9.72567 18.6074 10.4581 19.7036C11.1906 20.7999 12.2317 21.6544 13.4498 22.1591C14.6678 22.6637 16.0082 22.7958 17.3013 22.5387C18.5945 22.2816 19.7824 21.6469 20.7148 20.7147L22.6001 22.6C21.7341 23.4677 20.7053 24.1558 19.5727 24.6248C18.4401 25.0939 17.226 25.3347 16.0001 25.3334Z" fill="black"/>
</g>
<defs>
<clipPath id="clip0_80_1698">
<rect width="32" height="32" fill="white"/>
</clipPath>
</defs>
</svg>
