<svg width="32" height="32" viewBox="0 0 32 32" fill="none" xmlns="http://www.w3.org/2000/svg">
<path d="M28 1.33334H4C2.93913 1.33334 1.92172 1.75477 1.17157 2.50492C0.421427 3.25506 0 4.27248 0 5.33334L0 30.6667H32V5.33334C32 4.27248 31.5786 3.25506 30.8284 2.50492C30.0783 1.75477 29.0609 1.33334 28 1.33334ZM4 4.00001H28C28.3536 4.00001 28.6928 4.14049 28.9428 4.39053C29.1929 4.64058 29.3333 4.97972 29.3333 5.33334V6.22268L18.8293 16.728C18.0779 17.4764 17.0606 17.8966 16 17.8966C14.9394 17.8966 13.9221 17.4764 13.1707 16.728L2.66667 6.22268V5.33334C2.66667 4.97972 2.80714 4.64058 3.05719 4.39053C3.30724 4.14049 3.64638 4.00001 4 4.00001ZM2.66667 28V10L11.2853 18.6133C12.5368 19.8617 14.2323 20.5627 16 20.5627C17.7677 20.5627 19.4632 19.8617 20.7147 18.6133L29.3333 10V28H2.66667Z" fill="black"/>
</svg>
