<svg width="32" height="32" viewBox="0 0 32 32" fill="none" xmlns="http://www.w3.org/2000/svg">
<g clip-path="url(#clip0_76_924)">
<path d="M30.82 1.18134C30.0524 0.447502 29.0313 0.0379639 27.9693 0.0379639C26.9074 0.0379639 25.8863 0.447502 25.1187 1.18134L20.576 5.72401C19.7272 6.58051 18.5764 7.07015 17.3707 7.08785C16.1649 7.10555 15.0003 6.6499 14.1267 5.81867L12.2667 7.73334L14.9667 10.4333L2.7 22.7C1.98629 23.4061 1.5228 24.3261 1.38008 25.3199C1.23735 26.3137 1.4232 27.3269 1.90933 28.2053L0 30.1147L1.88533 32L3.79467 30.0907C4.67311 30.5768 5.68633 30.7627 6.68012 30.6199C7.67392 30.4772 8.59387 30.0137 9.3 29.3L21.5667 17.0333L24.2667 19.7333L26.1787 17.876C25.3471 17.0026 24.8913 15.8379 24.909 14.632C24.9267 13.4262 25.4165 12.2753 26.2733 11.4267L30.816 6.88401C31.5718 6.12812 31.9964 5.10295 31.9964 4.03401C31.9964 2.96506 31.5718 1.93989 30.816 1.18401L30.82 1.18134ZM7.41333 27.4147C7.03237 27.7783 6.52597 27.9812 5.99933 27.9812C5.4727 27.9812 4.9663 27.7783 4.58533 27.4147C4.21039 27.0396 3.99976 26.531 3.99976 26.0007C3.99976 25.4703 4.21039 24.9617 4.58533 24.5867L16.852 12.32L19.68 15.148L7.41333 27.4147ZM28.9333 4.99601L24.3907 9.53867C23.1945 10.7259 22.4471 12.2913 22.276 13.968L18.032 9.72401C19.7087 9.55287 21.2741 8.80552 22.4613 7.60934L27.0053 3.06667C27.2647 2.81812 27.6101 2.67936 27.9693 2.67936C28.3286 2.67936 28.6739 2.81812 28.9333 3.06667C29.0602 3.19325 29.1609 3.34361 29.2295 3.50914C29.2982 3.67467 29.3336 3.85213 29.3336 4.03134C29.3336 4.21055 29.2982 4.38801 29.2295 4.55354C29.1609 4.71907 29.0602 4.86943 28.9333 4.99601Z" fill="black"/>
</g>
<defs>
<clipPath id="clip0_76_924">
<rect width="32" height="32" fill="white"/>
</clipPath>
</defs>
</svg>
