<svg width="32" height="32" viewBox="0 0 32 32" fill="none" xmlns="http://www.w3.org/2000/svg">
<g opacity="0.7">
<path d="M32 16.8654C32 16.148 31.8853 15.4387 31.6573 14.756L29.872 9.40003C29.3267 7.76403 27.8013 6.66536 26.0773 6.66536H22.6653V5.33203C22.6653 3.1267 20.8707 1.33203 18.6653 1.33203H4C1.79467 1.33336 0 3.12803 0 5.33336V6.6667H2.66667V5.33336C2.66667 4.59736 3.264 4.00003 4 4.00003H18.6667C19.4027 4.00003 20 4.59736 20 5.33336V22.6667H2.66667V20H0V25.3334H2.66667V26C2.66667 28.5734 4.76 30.6667 7.33333 30.6667C9.90667 30.6667 12 28.5734 12 26V25.3334H20V26C20 28.5734 22.0933 30.6667 24.6667 30.6667C27.24 30.6667 29.3333 28.5734 29.3333 26V25.3334H32V16.8654ZM26.0787 9.33336C26.6533 9.33336 27.1613 9.6987 27.344 10.2454L28.8173 14.6667H22.6667V9.33336H26.0787ZM9.33333 26C9.33333 27.1027 8.436 28 7.33333 28C6.23067 28 5.33333 27.1027 5.33333 26V25.3334H9.33333V26ZM26.6667 26C26.6667 27.1027 25.7693 28 24.6667 28C23.564 28 22.6667 27.1027 22.6667 26V25.3334H26.6667V26ZM22.6667 22.6667V17.3334H29.3333V22.6667H22.6667ZM1.66667 17.3334H0V9.33336H3.33333V11H1.66933L1.676 12.6694L3.33333 12.6667V14.3334L1.66667 14.336V17.3334ZM14 11H12.336L12.3427 12.5774L14 12.5747V14.2414L12.3413 14.244L12.336 15.6667H14V17.3334H10.6667V9.33336H14V11ZM18.6667 11H17.0027L17.0093 12.5774L18.6667 12.5747V14.2414L17.008 14.244L17.0027 15.6667H18.6667V17.3334H15.3333V9.33336H18.6667V11ZM6.65067 9.33336H4.66667V17.3334H6.33333V14.6307L6.65067 14.6267C6.812 14.6267 6.968 14.6067 7.12133 14.58L7.92267 17.3347H9.66667L8.59067 13.7987C9.048 13.324 9.33333 12.6854 9.33333 11.98C9.33333 10.5214 8.13067 9.33336 6.65067 9.33336ZM6.65067 12.96L6.34267 12.964L6.336 11H6.65067C7.20133 11 7.66667 11.448 7.66667 11.98C7.66667 12.512 7.20133 12.96 6.65067 12.96Z" fill="black"/>
</g>
</svg>
