<svg width="32" height="32" viewBox="0 0 32 32" fill="none" xmlns="http://www.w3.org/2000/svg">
<g clip-path="url(#clip0_104_1689)">
<path d="M28 9.33333H23.8213C24.7455 8.49077 25.4778 7.45948 25.9687 6.30929C26.4596 5.1591 26.6976 3.91685 26.6667 2.66667H24C24 6.508 21.372 8.40933 18.464 9.06667C19.3372 7.50906 19.8613 5.78025 20 4C20 2.93913 19.5786 1.92172 18.8284 1.17157C18.0783 0.421427 17.0609 0 16 0C14.9391 0 13.9217 0.421427 13.1716 1.17157C12.4214 1.92172 12 2.93913 12 4C12.1387 5.78025 12.6628 7.50906 13.536 9.06667C10.628 8.40933 8 6.508 8 2.66667H5.33333C5.30239 3.91685 5.54043 5.1591 6.03133 6.30929C6.52223 7.45948 7.25454 8.49077 8.17867 9.33333H4C2.93913 9.33333 1.92172 9.75476 1.17157 10.5049C0.421427 11.2551 0 12.2725 0 13.3333L0 18.6667H2.66667V32H29.3333V18.6667H32V13.3333C32 12.2725 31.5786 11.2551 30.8284 10.5049C30.0783 9.75476 29.0609 9.33333 28 9.33333ZM16 2.66667C16.3536 2.66667 16.6928 2.80714 16.9428 3.05719C17.1929 3.30724 17.3333 3.64638 17.3333 4C17.1724 5.4171 16.7183 6.78521 16 8.01733C15.2817 6.78521 14.8276 5.4171 14.6667 4C14.6667 3.64638 14.8071 3.30724 15.0572 3.05719C15.3072 2.80714 15.6464 2.66667 16 2.66667ZM2.66667 13.3333C2.66667 12.9797 2.80714 12.6406 3.05719 12.3905C3.30724 12.1405 3.64638 12 4 12H14.6667V16H2.66667V13.3333ZM5.33333 18.6667H14.6667V29.3333H5.33333V18.6667ZM26.6667 29.3333H17.3333V18.6667H26.6667V29.3333ZM29.3333 16H17.3333V12H28C28.3536 12 28.6928 12.1405 28.9428 12.3905C29.1929 12.6406 29.3333 12.9797 29.3333 13.3333V16Z" fill="black"/>
</g>
<defs>
<clipPath id="clip0_104_1689">
<rect width="32" height="32" fill="white"/>
</clipPath>
</defs>
</svg>
