<svg width="32" height="32" viewBox="0 0 32 32" fill="none" xmlns="http://www.w3.org/2000/svg">
<path d="M17.3332 16H19.9999V18.6667H17.3332V21.3333H14.6666V18.6667H11.9999V16H14.6666V13.3333H17.3332V16ZM31.9906 16.184C31.9906 16.184 29.6652 19.5 25.0199 19.9413C23.4226 25.7653 18.3612 27.4973 15.9666 28.5427C13.4239 27.2587 8.64922 25.068 7.03322 19.948C2.35055 19.528 0.00922129 16.184 0.00922129 16.184C0.00922129 13.8987 -0.374779 10.092 3.81322 5.14267C3.81322 5.14267 4.73589 4 6.09722 4C7.99989 4 8.85456 4.64933 9.33322 6L7.99989 6.284V7.42667L5.33989 8.188C4.97322 9.288 5.99989 12.6667 4.66522 15.3907C4.88522 15.1427 5.55189 14.4853 6.66655 14.1613V11.8867C6.66655 10.5453 7.52389 9.36 8.79856 8.93867L15.9999 6.54933L23.2026 8.93867C24.4759 9.36 25.3332 10.5453 25.3332 11.8867V14.1613C26.4479 14.4853 27.1146 15.1427 27.3346 15.3907C26.2212 12.8413 27.0266 9.288 26.6599 8.188L23.9999 7.42667V6.284L22.6666 6C23.1452 4.64933 23.9999 4 25.9026 4C27.2639 4 28.1866 5.14267 28.1866 5.14267C32.3746 10.092 31.9906 13.9 31.9906 16.184ZM22.6666 11.8867C22.6666 11.6973 22.5452 11.5293 22.3639 11.4707L15.9999 9.36L9.63722 11.4707C9.45456 11.5307 9.33322 11.6987 9.33322 11.8867V17.54C9.42922 21.9013 13.8666 24.4773 16.0599 25.6173C18.3892 24.6267 22.5666 22.508 22.6666 17.5147V11.8867Z" fill="black"/>
</svg>
