<svg width="32" height="32" viewBox="0 0 32 32" fill="none" xmlns="http://www.w3.org/2000/svg">
<g clip-path="url(#clip0_19_1583)">
<path d="M16 0C12.8355 0 9.74207 0.938384 7.11088 2.69649C4.4797 4.45459 2.42894 6.95345 1.21793 9.87707C0.00693258 12.8007 -0.309921 16.0177 0.307443 19.1214C0.924806 22.2251 2.44866 25.0761 4.6863 27.3137C6.92394 29.5514 9.77487 31.0752 12.8786 31.6926C15.9823 32.3099 19.1993 31.9931 22.1229 30.7821C25.0466 29.5711 27.5454 27.5203 29.3035 24.8891C31.0616 22.2579 32 19.1645 32 16C31.9954 11.7579 30.3082 7.69095 27.3087 4.69136C24.3091 1.69177 20.2421 0.00458811 16 0ZM16 29.3333C13.3629 29.3333 10.7851 28.5513 8.5924 27.0863C6.39975 25.6212 4.69078 23.5388 3.68161 21.1024C2.67245 18.6661 2.4084 15.9852 2.92287 13.3988C3.43734 10.8124 4.70722 8.43661 6.57192 6.57191C8.43662 4.70721 10.8124 3.43733 13.3988 2.92286C15.9852 2.40839 18.6661 2.67244 21.1025 3.68161C23.5388 4.69078 25.6212 6.39974 27.0863 8.5924C28.5514 10.7851 29.3333 13.3629 29.3333 16C29.3295 19.535 27.9235 22.9242 25.4238 25.4238C22.9242 27.9235 19.535 29.3295 16 29.3333Z" fill="black"/>
<path d="M16.9558 6.75069C16.1869 6.61059 15.3967 6.6412 14.6409 6.84034C13.8851 7.03948 13.1824 7.40229 12.5824 7.90309C11.9823 8.40389 11.4997 9.03045 11.1687 9.73842C10.8376 10.4464 10.6662 11.2185 10.6665 12C10.6665 12.3536 10.807 12.6928 11.057 12.9428C11.3071 13.1929 11.6462 13.3334 11.9998 13.3334C12.3535 13.3334 12.6926 13.1929 12.9426 12.9428C13.1927 12.6928 13.3332 12.3536 13.3332 12C13.3328 11.6077 13.4191 11.2202 13.5857 10.865C13.7523 10.5099 13.9953 10.1959 14.2972 9.94539C14.5991 9.69491 14.9526 9.51414 15.3324 9.41595C15.7122 9.31776 16.109 9.30458 16.4945 9.37735C17.0212 9.4796 17.5055 9.73653 17.8855 10.1153C18.2655 10.4941 18.5239 10.9776 18.6278 11.504C18.7328 12.0566 18.6603 12.6281 18.4208 13.137C18.1814 13.6459 17.7871 14.066 17.2945 14.3374C16.4787 14.81 15.8046 15.4927 15.3424 16.3144C14.8802 17.1361 14.6468 18.0668 14.6665 19.0094V20C14.6665 20.3536 14.807 20.6928 15.057 20.9428C15.3071 21.1929 15.6462 21.3334 15.9998 21.3334C16.3535 21.3334 16.6926 21.1929 16.9426 20.9428C17.1927 20.6928 17.3332 20.3536 17.3332 20V19.0094C17.3164 18.5454 17.4222 18.0852 17.6399 17.6751C17.8576 17.265 18.1795 16.9195 18.5732 16.6734C19.5392 16.1428 20.3171 15.326 20.7999 14.3352C21.2828 13.3445 21.4468 12.2285 21.2695 11.1407C21.0922 10.0529 20.5823 9.04681 19.8098 8.26068C19.0374 7.47455 18.0403 6.94704 16.9558 6.75069Z" fill="black"/>
<path d="M17.3332 24C17.3332 23.2636 16.7362 22.6667 15.9998 22.6667C15.2635 22.6667 14.6665 23.2636 14.6665 24C14.6665 24.7364 15.2635 25.3334 15.9998 25.3334C16.7362 25.3334 17.3332 24.7364 17.3332 24Z" fill="black"/>
</g>
<defs>
<clipPath id="clip0_19_1583">
<rect width="32" height="32" fill="white"/>
</clipPath>
</defs>
</svg>
