<svg width="200" height="63" viewBox="0 0 200 63" fill="none" xmlns="http://www.w3.org/2000/svg">
<mask id="mask0_78_1311" style="mask-type:luminance" maskUnits="userSpaceOnUse" x="0" y="4" width="54" height="59">
<path d="M0 4.53271H53.7865V63.0001H0V4.53271Z" fill="white"/>
</mask>
<g mask="url(#mask0_78_1311)">
<mask id="mask1_78_1311" style="mask-type:luminance" maskUnits="userSpaceOnUse" x="0" y="4" width="54" height="59">
<path d="M29.5374 62.9995C25.2523 62.9995 21.0135 62.079 17.1645 60.3241C24.7371 60.1144 30.8316 53.9512 30.8316 46.4042C30.8316 40.1424 35.9787 35.0466 42.3059 35.0466C48.6356 35.0466 53.7852 40.1424 53.7852 46.4055C53.7852 49.44 52.5905 52.2918 50.4204 54.4372C50.3532 54.5031 50.2866 54.5697 50.1979 54.6525C44.6471 60.0347 37.3084 62.9982 29.5349 62.9982L29.5374 62.9995ZM16.7645 57.7668C16.5776 57.7668 16.39 57.7618 16.2049 57.7536C16.1377 57.7498 16.0705 57.7448 16.004 57.7404L15.9076 57.7329L15.8138 57.7272C15.7587 57.7235 15.7055 57.7197 15.6516 57.7147C15.5204 57.7027 15.3898 57.6858 15.2599 57.6695L15.1091 57.6513C14.9614 57.6293 14.8143 57.6042 14.6667 57.5778L14.5716 57.5621C14.4144 57.532 14.2585 57.4981 14.1039 57.4616L14.0417 57.4485C13.8814 57.4102 13.7229 57.3681 13.5645 57.3223L13.5182 57.3103C13.3592 57.2645 13.202 57.2136 13.041 57.1596L13.0023 57.1458C12.8489 57.0931 12.6956 57.0366 12.5428 56.9776L12.4921 56.9581C12.3457 56.9003 12.2012 56.8388 12.0599 56.7748L11.9876 56.7434C11.8526 56.6818 11.7189 56.6172 11.5858 56.5506L11.4907 56.5035C11.3678 56.4414 11.2461 56.3748 11.1244 56.3064L11.0014 56.2373C10.8918 56.1745 10.7834 56.1086 10.6763 56.0408L10.5216 55.9447C10.4266 55.8832 10.3315 55.8191 10.2377 55.7551C10.1756 55.7118 10.1141 55.6697 10.052 55.6251C9.97024 55.5661 9.88975 55.5071 9.80926 55.4455C9.73764 55.3916 9.66539 55.3357 9.59504 55.2792C9.52595 55.2252 9.45877 55.1687 9.39032 55.1128C9.3111 55.0469 9.2325 54.979 9.15328 54.9106C9.09434 54.8597 9.0373 54.8083 8.98025 54.7549C8.86807 54.6525 8.75589 54.5489 8.63927 54.4334C8.57463 54.3694 8.50871 54.3041 8.43075 54.2225C2.99405 48.7242 0 41.461 0 33.767C0 29.5258 0.929779 25.3291 2.70314 21.5198C2.72722 22.3467 2.82103 23.1554 2.98328 23.9302C3.12081 24.5951 3.31032 25.2606 3.54926 25.9067C3.62975 26.1221 3.71468 26.3368 3.80594 26.5515C3.85348 26.662 3.89975 26.7669 3.94601 26.8674C3.99228 26.9697 4.03728 27.067 4.08608 27.1675C4.29904 27.5988 4.51136 27.9843 4.73382 28.3472C7.31464 32.5421 11.8127 35.0479 16.7671 35.0479C23.0943 35.0479 28.2413 40.1424 28.2413 46.4055C28.2413 52.6704 23.093 57.7668 16.7645 57.7668ZM42.3059 32.4843C39.2408 32.4843 36.3583 31.3033 34.1927 29.1585C32.0263 27.013 30.8316 24.1612 30.8316 21.128C30.8316 19.9708 31.0047 18.8344 31.3475 17.75C31.3989 17.5887 31.4559 17.421 31.5161 17.2559L31.1225 17.1159L31.5282 17.2207C32.238 15.302 33.4663 13.6017 35.08 12.3039C35.2004 12.2072 35.3221 12.1118 35.4476 12.0195C35.5819 11.919 35.7264 11.8167 35.8925 11.7068C36.0104 11.6277 36.1295 11.5504 36.25 11.477C37.7787 10.5358 39.5394 9.95941 41.3412 9.80872C41.6784 9.78109 42.0036 9.76791 42.323 9.76791C42.5081 9.76791 42.6919 9.77293 42.8744 9.78109L42.9878 9.78988C43.1349 9.79804 43.2826 9.80746 43.4271 9.82128C43.4879 9.82693 43.5481 9.83446 43.609 9.84137L43.7826 9.86209C43.846 9.86899 43.9094 9.87653 43.9715 9.88469C44.0704 9.89913 44.1673 9.91608 44.2662 9.93304L44.3955 9.95501C44.4329 9.96066 44.4722 9.9682 44.5096 9.9751C44.6389 10.0008 44.7669 10.0285 44.8943 10.0574L45.0407 10.09C45.1757 10.122 45.3101 10.1584 45.4438 10.1955L45.5642 10.2281C45.7005 10.2683 45.8349 10.3116 45.9686 10.3562L46.0833 10.3933C46.2145 10.4391 46.3463 10.4874 46.4763 10.5383L46.5948 10.5829C46.7196 10.6319 46.8426 10.6852 46.9662 10.7392L47.0999 10.7982C47.2153 10.8516 47.3287 10.9069 47.4422 10.9621L47.5993 11.0406C47.7026 11.0933 47.8047 11.1505 47.9289 11.2189C47.9828 11.2491 48.036 11.2779 48.0899 11.3093C48.1799 11.3614 48.2699 11.4167 48.3586 11.4707C48.4296 11.514 48.5012 11.5586 48.5709 11.6032C48.6489 11.654 48.7256 11.7061 48.801 11.7564C48.8815 11.8116 48.9626 11.8675 49.0419 11.9253C49.1065 11.9711 49.1699 12.0195 49.2333 12.0665C49.322 12.1337 49.4107 12.2009 49.4988 12.2712C49.5508 12.3133 49.6034 12.3566 49.656 12.3999C49.7504 12.4784 49.8442 12.5594 49.938 12.641L50.0699 12.7591C50.189 12.8677 50.3069 12.9776 50.4216 13.0919C52.5816 15.2298 53.775 18.0715 53.7827 21.1085L53.7839 21.1449C53.7712 27.396 48.6217 32.4818 42.3046 32.4818L42.3059 32.4843ZM16.7658 32.4843C12.7235 32.4843 9.05187 30.4393 6.94514 27.0143C6.76387 26.7198 6.59211 26.4052 6.41909 26.0561C6.34493 25.9017 6.26951 25.734 6.18902 25.5476C5.8943 24.8557 5.6693 24.1386 5.51973 23.4141C5.36698 22.6838 5.28839 21.9128 5.28586 21.1255C5.28586 20.9403 5.29029 20.7544 5.29917 20.5711C5.30297 20.5039 5.30741 20.4361 5.31375 20.3689L5.32705 20.1881C5.33086 20.1334 5.33466 20.0782 5.3391 20.0242C5.35114 19.8961 5.36825 19.7686 5.38536 19.6362L5.40374 19.4855C5.42593 19.3385 5.45128 19.1923 5.4779 19.0453L5.49374 18.9537C5.52417 18.7973 5.55839 18.6416 5.59642 18.4865L5.60973 18.4294C5.64839 18.2693 5.69212 18.1104 5.73839 17.9535L5.7498 17.9127C5.79733 17.7538 5.84803 17.5956 5.90191 17.4399L5.91395 17.4016C5.96782 17.2471 6.02613 17.0945 6.08824 16.9413L6.10536 16.8968C6.16493 16.7498 6.22831 16.6048 6.29423 16.4604L6.32211 16.3976C6.38549 16.2614 6.45204 16.1264 6.52049 15.9926L6.56422 15.906C6.62887 15.7817 6.69669 15.6586 6.76767 15.5374L6.83359 15.4213C6.8976 15.3108 6.96605 15.2021 7.04908 15.0722L7.12894 14.9466C7.19232 14.8499 7.25823 14.7551 7.32415 14.6609C7.36661 14.6006 7.40781 14.5404 7.45217 14.4813C7.51175 14.3997 7.57386 14.3187 7.63597 14.2377C7.69048 14.168 7.74562 14.0983 7.80139 14.028C7.85717 13.9583 7.91484 13.8911 7.97189 13.8233C8.03907 13.7448 8.10562 13.667 8.17533 13.5898C8.22667 13.5333 8.27864 13.4749 8.33125 13.4196C8.43456 13.3085 8.53913 13.198 8.64878 13.0906C8.71596 13.024 8.78314 12.9569 8.87061 12.8746C14.4233 7.49752 21.7607 4.53397 29.5374 4.53271C33.8232 4.53271 38.0632 5.45317 41.9123 7.20807C41.693 7.21435 41.4731 7.22503 41.2563 7.24198C39.0558 7.4046 36.8983 8.08772 35.0166 9.22103C34.8246 9.33656 34.6331 9.45585 34.4455 9.58017C34.2497 9.71014 34.0621 9.84137 33.8916 9.96945C33.775 10.0561 33.6603 10.1453 33.5468 10.2344C32.5384 11.0299 31.6448 11.9567 30.8925 12.9908C30.3385 13.7511 29.8632 14.5623 29.481 15.4037C29.3409 15.7095 29.211 16.0253 29.0925 16.3449L29.0405 16.4943C28.9841 16.6519 28.9283 16.8145 28.8732 16.9872C28.4536 18.3176 28.2413 19.7109 28.2413 21.128C28.2413 27.3904 23.0943 32.4843 16.7671 32.4843H16.7658Z" fill="white"/>
</mask>
<g mask="url(#mask1_78_1311)">
<path d="M-19.865 55.4012L46.7945 80.9003L73.6497 12.1321L6.99021 -13.3677L-19.865 55.4012Z" fill="url(#paint0_linear_78_1311)"/>
</g>
</g>
<mask id="mask2_78_1311" style="mask-type:luminance" maskUnits="userSpaceOnUse" x="64" y="14" width="31" height="33">
<path d="M64.7207 14.7837H94.3583V46.8861H64.7207V14.7837Z" fill="white"/>
</mask>
<g mask="url(#mask2_78_1311)">
<mask id="mask3_78_1311" style="mask-type:luminance" maskUnits="userSpaceOnUse" x="64" y="14" width="31" height="33">
<path d="M92.9474 41.4751C89.9762 44.7526 85.655 46.8265 80.9275 46.8265C71.9466 46.8277 64.7207 39.6694 64.7207 30.7724C64.7207 21.9421 71.9466 14.7837 80.9275 14.7837C85.6537 14.7837 89.9762 16.8576 92.9474 20.135C95.8509 23.2794 93.5546 28.3639 89.234 28.3639C88.1534 24.7524 84.8444 22.1423 80.9288 22.1423C76.0669 22.1423 72.2179 26.022 72.2179 30.7712C72.2179 35.5876 76.0669 39.4006 80.9288 39.4006C84.8444 39.4006 88.154 36.8578 89.234 33.2462C93.5559 33.2462 95.8509 38.3301 92.9474 41.4751Z" fill="white"/>
</mask>
<g mask="url(#mask3_78_1311)">
<mask id="mask4_78_1311" style="mask-type:luminance" maskUnits="userSpaceOnUse" x="64" y="14" width="31" height="33">
<path d="M94.3742 14.7573H64.6821V46.9043H94.3742V14.7573Z" fill="white"/>
</mask>
<g mask="url(#mask4_78_1311)">
<mask id="mask5_78_1311" style="mask-type:luminance" maskUnits="userSpaceOnUse" x="64" y="14" width="31" height="33">
<path d="M64.7207 14.7837H94.2765V46.8403H64.7207V14.7837Z" fill="white"/>
</mask>
<g mask="url(#mask5_78_1311)">
<mask id="mask6_78_1311" style="mask-type:luminance" maskUnits="userSpaceOnUse" x="64" y="14" width="31" height="33">
<path d="M92.9474 41.4751C89.9762 44.7526 85.655 46.8265 80.9275 46.8265C71.9466 46.8277 64.7207 39.6694 64.7207 30.7724C64.7207 21.9421 71.9466 14.7837 80.9275 14.7837C85.6537 14.7837 89.9762 16.8576 92.9474 20.135C95.8509 23.2794 93.5546 28.3639 89.234 28.3639C88.1534 24.7524 84.8444 22.1423 80.9288 22.1423C76.0669 22.1423 72.2179 26.022 72.2179 30.7712C72.2179 35.5876 76.0669 39.4006 80.9288 39.4006C84.8444 39.4006 88.154 36.8578 89.234 33.2462C93.5559 33.2462 95.8509 38.3301 92.9474 41.4751Z" fill="white"/>
</mask>
<g mask="url(#mask6_78_1311)">
<path d="M64.7207 14.7837H94.2429V46.7719H64.7207V14.7837Z" fill="white"/>
</g>
</g>
</g>
</g>
</g>
<mask id="mask7_78_1311" style="mask-type:luminance" maskUnits="userSpaceOnUse" x="98" y="14" width="33" height="33">
<path d="M98.2815 14.7837H130.627V46.8271H98.2815V14.7837Z" fill="white"/>
</mask>
<g mask="url(#mask7_78_1311)">
<mask id="mask8_78_1311" style="mask-type:luminance" maskUnits="userSpaceOnUse" x="98" y="14" width="33" height="33">
<path d="M106.115 28.3639H122.794C122.389 26.9594 121.646 25.6879 120.632 24.6846C119.012 23.1463 116.85 22.1423 114.487 22.1423C112.056 22.1423 109.896 23.1451 108.275 24.6846C107.262 25.6879 106.519 26.9594 106.113 28.3639M120.564 36.9928C123.873 39.4678 122.996 44.6854 119.078 45.9575C117.458 46.4924 115.905 46.8265 114.487 46.8265C109.962 46.8265 105.978 45.0207 103.007 42.1444C100.104 39.2004 98.2815 35.2536 98.2815 30.7724C98.2815 22.0086 105.575 14.7837 114.42 14.7837C118.945 14.7837 122.996 16.5894 125.9 19.4664C128.805 22.3426 130.627 26.3566 130.627 30.7724V30.839C130.627 32.177 129.479 33.2475 128.128 33.2475H106.115C106.52 34.6521 107.262 35.9235 108.276 36.9268C109.897 38.4651 112.057 39.4019 114.488 39.4019C116.852 39.4019 118.945 38.4651 120.565 36.9928" fill="white"/>
</mask>
<g mask="url(#mask8_78_1311)">
<mask id="mask9_78_1311" style="mask-type:luminance" maskUnits="userSpaceOnUse" x="98" y="14" width="33" height="33">
<path d="M130.718 14.7573H98.2681V46.9043H130.718V14.7573Z" fill="white"/>
</mask>
<g mask="url(#mask9_78_1311)">
<mask id="mask10_78_1311" style="mask-type:luminance" maskUnits="userSpaceOnUse" x="98" y="14" width="33" height="33">
<path d="M98.2815 14.7837H130.627V46.8271H98.2815V14.7837Z" fill="white"/>
</mask>
<g mask="url(#mask10_78_1311)">
<mask id="mask11_78_1311" style="mask-type:luminance" maskUnits="userSpaceOnUse" x="98" y="14" width="33" height="33">
<path d="M106.115 28.3639H122.794C122.389 26.9594 121.646 25.6879 120.632 24.6846C119.012 23.1463 116.85 22.1423 114.487 22.1423C112.056 22.1423 109.896 23.1451 108.275 24.6846C107.262 25.6879 106.519 26.9594 106.113 28.3639M120.564 36.9928C123.873 39.4678 122.996 44.6854 119.078 45.9575C117.458 46.4924 115.905 46.8265 114.487 46.8265C109.962 46.8265 105.978 45.0207 103.007 42.1444C100.104 39.2004 98.2815 35.2536 98.2815 30.7724C98.2815 22.0086 105.575 14.7837 114.42 14.7837C118.945 14.7837 122.996 16.5894 125.9 19.4664C128.805 22.3426 130.627 26.3566 130.627 30.7724V30.839C130.627 32.177 129.479 33.2475 128.128 33.2475H106.115C106.52 34.6521 107.262 35.9235 108.276 36.9268C109.897 38.4651 112.057 39.4019 114.488 39.4019C116.852 39.4019 118.945 38.4651 120.565 36.9928" fill="white"/>
</mask>
<g mask="url(#mask11_78_1311)">
<path d="M98.2815 14.7837H130.627V46.8271H98.2815V14.7837Z" fill="white"/>
</g>
</g>
</g>
</g>
</g>
<mask id="mask12_78_1311" style="mask-type:luminance" maskUnits="userSpaceOnUse" x="134" y="0" width="14" height="47">
<path d="M134.678 0H147.106V46.7833H134.678V0Z" fill="white"/>
</mask>
<g mask="url(#mask12_78_1311)">
<mask id="mask13_78_1311" style="mask-type:luminance" maskUnits="userSpaceOnUse" x="134" y="0" width="14" height="47">
<path d="M147.103 46.7607C143.861 46.4932 140.89 45.0209 138.662 42.8805C136.231 40.4054 134.678 36.9935 134.678 33.247V0H142.173V33.247C142.173 33.7161 142.173 34.116 142.241 34.5179C142.511 35.7221 143.118 36.7926 143.997 37.5951C144.807 38.4647 145.888 39.0674 147.103 39.3349L147.103 46.7607Z" fill="white"/>
</mask>
<g mask="url(#mask13_78_1311)">
<mask id="mask14_78_1311" style="mask-type:luminance" maskUnits="userSpaceOnUse" x="134" y="-1" width="14" height="48">
<path d="M147.106 -0.0302734H134.613V46.9044H147.106V-0.0302734Z" fill="white"/>
</mask>
<g mask="url(#mask14_78_1311)">
<mask id="mask15_78_1311" style="mask-type:luminance" maskUnits="userSpaceOnUse" x="134" y="0" width="14" height="47">
<path d="M134.678 0H147.106V46.7632H134.678V0Z" fill="white"/>
</mask>
<g mask="url(#mask15_78_1311)">
<mask id="mask16_78_1311" style="mask-type:luminance" maskUnits="userSpaceOnUse" x="134" y="0" width="14" height="47">
<path d="M147.103 46.7607C143.861 46.4932 140.89 45.0209 138.662 42.8805C136.231 40.4054 134.678 36.9935 134.678 33.247V0H142.173V33.247C142.173 33.7161 142.173 34.116 142.241 34.5179C142.511 35.7221 143.118 36.7926 143.997 37.5951C144.807 38.4647 145.888 39.0674 147.103 39.3349L147.103 46.7607Z" fill="white"/>
</mask>
<g mask="url(#mask16_78_1311)">
<path d="M134.678 0H147.103V46.7833H134.678V0Z" fill="white"/>
</g>
</g>
</g>
</g>
</g>
<mask id="mask17_78_1311" style="mask-type:luminance" maskUnits="userSpaceOnUse" x="151" y="0" width="13" height="47">
<path d="M151.154 0H163.628V46.7833H151.154V0Z" fill="white"/>
</mask>
<g mask="url(#mask17_78_1311)">
<mask id="mask18_78_1311" style="mask-type:luminance" maskUnits="userSpaceOnUse" x="151" y="0" width="13" height="47">
<path d="M163.578 46.7607C160.337 46.4932 157.367 45.0209 155.138 42.8805C152.707 40.4054 151.154 36.9935 151.154 33.247V0H158.649V33.247C158.649 33.7161 158.649 34.116 158.717 34.5179C158.987 35.7221 159.594 36.7926 160.473 37.5951C161.283 38.4647 162.364 39.0674 163.58 39.3349L163.578 46.7607Z" fill="white"/>
</mask>
<g mask="url(#mask18_78_1311)">
<mask id="mask19_78_1311" style="mask-type:luminance" maskUnits="userSpaceOnUse" x="151" y="-1" width="13" height="48">
<path d="M163.656 -0.0302734H151V46.9044H163.656V-0.0302734Z" fill="white"/>
</mask>
<g mask="url(#mask19_78_1311)">
<mask id="mask20_78_1311" style="mask-type:luminance" maskUnits="userSpaceOnUse" x="151" y="0" width="13" height="47">
<path d="M151.154 0H163.591V46.7632H151.154V0Z" fill="white"/>
</mask>
<g mask="url(#mask20_78_1311)">
<mask id="mask21_78_1311" style="mask-type:luminance" maskUnits="userSpaceOnUse" x="151" y="0" width="13" height="47">
<path d="M163.578 46.7607C160.337 46.4932 157.367 45.0209 155.138 42.8805C152.707 40.4054 151.154 36.9935 151.154 33.247V0H158.649V33.247C158.649 33.7161 158.649 34.116 158.717 34.5179C158.987 35.7221 159.594 36.7926 160.473 37.5951C161.283 38.4647 162.364 39.0674 163.58 39.3349L163.578 46.7607Z" fill="white"/>
</mask>
<g mask="url(#mask21_78_1311)">
<path d="M151.154 0H163.579V46.7833H151.154V0Z" fill="white"/>
</g>
</g>
</g>
</g>
</g>
<mask id="mask22_78_1311" style="mask-type:luminance" maskUnits="userSpaceOnUse" x="167" y="14" width="33" height="33">
<path d="M167.63 14.7837H200V46.9043H167.63V14.7837Z" fill="white"/>
</mask>
<g mask="url(#mask22_78_1311)">
<mask id="mask23_78_1311" style="mask-type:luminance" maskUnits="userSpaceOnUse" x="167" y="14" width="33" height="33">
<path d="M175.802 22.8788C175.396 23.3466 175.059 24.0159 175.126 24.6846C175.126 26.0226 176.274 27.0931 177.624 27.0931H190.049C194.64 27.0931 198.557 30.2375 199.638 34.5196C199.908 35.322 199.975 36.125 199.975 36.994C199.975 39.6706 198.895 42.1457 197.072 43.9515C195.248 45.7572 192.749 46.8277 190.049 46.8277H167.63V43.1484C167.63 41.0752 169.318 39.4019 171.344 39.4019H189.982C191.333 39.4019 192.48 38.3986 192.548 36.9928C192.548 36.3241 192.278 35.6548 191.806 35.2536C191.333 34.7858 190.726 34.5183 190.05 34.5183H177.556C174.855 34.5183 172.356 33.3812 170.534 31.642C169.318 30.3712 168.372 28.8317 167.969 27.0931C167.765 26.2907 167.63 25.4876 167.63 24.6846C167.63 19.1983 172.221 14.7837 177.692 14.7837H199.977V18.463C199.977 20.5369 198.289 22.1423 196.262 22.1423H177.556C176.881 22.1423 176.274 22.4764 175.8 22.8776" fill="white"/>
</mask>
<g mask="url(#mask23_78_1311)">
<mask id="mask24_78_1311" style="mask-type:luminance" maskUnits="userSpaceOnUse" x="167" y="14" width="33" height="33">
<path d="M200 14.7573H167.55V46.9043H200V14.7573Z" fill="white"/>
</mask>
<g mask="url(#mask24_78_1311)">
<mask id="mask25_78_1311" style="mask-type:luminance" maskUnits="userSpaceOnUse" x="167" y="14" width="33" height="33">
<path d="M167.63 14.7837H200V46.8403H167.63V14.7837Z" fill="white"/>
</mask>
<g mask="url(#mask25_78_1311)">
<mask id="mask26_78_1311" style="mask-type:luminance" maskUnits="userSpaceOnUse" x="167" y="14" width="33" height="33">
<path d="M175.802 22.8788C175.396 23.3466 175.059 24.0159 175.126 24.6846C175.126 26.0226 176.274 27.0931 177.624 27.0931H190.049C194.64 27.0931 198.557 30.2375 199.638 34.5196C199.908 35.322 199.975 36.125 199.975 36.994C199.975 39.6706 198.895 42.1457 197.072 43.9515C195.248 45.7572 192.749 46.8277 190.049 46.8277H167.63V43.1484C167.63 41.0752 169.318 39.4019 171.344 39.4019H189.982C191.333 39.4019 192.48 38.3986 192.548 36.9928C192.548 36.3241 192.278 35.6548 191.806 35.2536C191.333 34.7858 190.726 34.5183 190.05 34.5183H177.556C174.855 34.5183 172.356 33.3812 170.534 31.642C169.318 30.3712 168.372 28.8317 167.969 27.0931C167.765 26.2907 167.63 25.4876 167.63 24.6846C167.63 19.1983 172.221 14.7837 177.692 14.7837H199.977V18.463C199.977 20.5369 198.289 22.1423 196.262 22.1423H177.556C176.881 22.1423 176.274 22.4764 175.8 22.8776" fill="white"/>
</mask>
<g mask="url(#mask26_78_1311)">
<path d="M167.63 14.7837H199.976V46.8271H167.63V14.7837Z" fill="white"/>
</g>
</g>
</g>
</g>
</g>
<path d="M121.283 57.2571H120.566L122.645 51.6465H123.352L125.433 57.2571H124.713L124.143 55.6674H121.854L121.283 57.2571ZM122.069 55.0646H123.927L123.02 52.533H122.977L122.069 55.0646Z" fill="white"/>
<path d="M133.716 53.3992H133.031C132.976 53.1399 132.869 52.9214 132.712 52.7437C132.556 52.5667 132.368 52.4323 132.147 52.3419C131.925 52.2502 131.688 52.2038 131.437 52.2038C131.095 52.2038 130.785 52.2904 130.506 52.4624C130.229 52.6332 130.008 52.8863 129.845 53.2209C129.682 53.5562 129.601 53.9662 129.601 54.4515C129.601 54.9375 129.682 55.3475 129.845 55.6822C130.008 56.0156 130.229 56.2686 130.506 56.4406C130.785 56.6114 131.095 56.6968 131.437 56.6968C131.688 56.6968 131.925 56.6516 132.147 56.5612C132.368 56.4695 132.556 56.3352 132.712 56.1594C132.869 55.9823 132.976 55.7638 133.031 55.5039H133.716C133.646 55.8875 133.504 56.2159 133.287 56.4884C133.073 56.7615 132.806 56.9706 132.486 57.1162C132.167 57.2619 131.817 57.3347 131.437 57.3347C130.955 57.3347 130.525 57.2179 130.149 56.9831C129.774 56.7489 129.478 56.4168 129.262 55.9861C129.045 55.5541 128.937 55.043 128.937 54.4515C128.937 53.8588 129.045 53.3477 129.262 52.917C129.478 52.4869 129.774 52.1548 130.149 51.92C130.525 51.6858 130.955 51.5684 131.437 51.5684C131.817 51.5684 132.167 51.6412 132.486 51.7869C132.806 51.9325 133.073 52.1422 133.287 52.4147C133.504 52.6879 133.646 53.0162 133.716 53.3992Z" fill="white"/>
<path d="M137.62 52.2492V51.6465H141.869V52.2492H140.087V57.2571H139.402V52.2492H137.62Z" fill="white"/>
<path d="M146.724 51.6465V57.2571H146.039V51.6465H146.724Z" fill="white"/>
<path d="M151.435 51.6465L153.116 56.3706H153.185L154.865 51.6465H155.585L153.504 57.2571H152.797L150.718 51.6465H151.435Z" fill="white"/>
<path d="M159.322 57.2571H158.604L160.683 51.6465H161.39L163.472 57.2571H162.752L162.181 55.6674H159.892L159.322 57.2571ZM160.108 55.0646H161.966L161.058 52.533H161.015L160.108 55.0646Z" fill="white"/>
<path d="M166.489 52.2492V51.6465H170.737V52.2492H168.955V57.2571H168.271V52.2492H166.489Z" fill="white"/>
<path d="M175.593 51.6465V57.2571H174.908V51.6465H175.593Z" fill="white"/>
<path d="M184.852 54.4515C184.852 55.043 184.744 55.5541 184.528 55.9861C184.311 56.4168 184.014 56.7489 183.638 56.9831C183.262 57.2179 182.833 57.3347 182.35 57.3347C181.868 57.3347 181.438 57.2179 181.062 56.9831C180.687 56.7489 180.391 56.4168 180.175 55.9861C179.958 55.5541 179.85 55.043 179.85 54.4515C179.85 53.8588 179.958 53.3477 180.175 52.917C180.391 52.4869 180.687 52.1548 181.062 51.92C181.438 51.6858 181.868 51.5684 182.35 51.5684C182.833 51.5684 183.262 51.6858 183.638 51.92C184.014 52.1548 184.311 52.4869 184.528 52.917C184.744 53.3477 184.852 53.8588 184.852 54.4515ZM184.188 54.4515C184.188 53.9662 184.105 53.5562 183.942 53.2209C183.78 52.8863 183.559 52.6332 183.28 52.4624C183.003 52.2904 182.693 52.2038 182.35 52.2038C182.008 52.2038 181.698 52.2904 181.419 52.4624C181.142 52.6332 180.921 52.8863 180.758 53.2209C180.595 53.5562 180.514 53.9662 180.514 54.4515C180.514 54.9375 180.595 55.3475 180.758 55.6822C180.921 56.0156 181.142 56.2686 181.419 56.4406C181.698 56.6114 182.008 56.6968 182.35 56.6968C182.693 56.6968 183.003 56.6114 183.28 56.4406C183.559 56.2686 183.78 56.0156 183.942 55.6822C184.105 55.3475 184.188 54.9375 184.188 54.4515Z" fill="white"/>
<path d="M193.6 51.6465V57.2571H192.936L189.851 52.852H189.795V57.2571H189.11V51.6465H189.772L192.87 56.0617H192.926V51.6465H193.6Z" fill="white"/>
<defs>
<linearGradient id="paint0_linear_78_1311" x1="15.0442" y1="68.7549" x2="41.4206" y2="-0.196941" gradientUnits="userSpaceOnUse">
<stop stop-color="#F35418"/>
<stop offset="0.125" stop-color="#F35418"/>
<stop offset="0.140625" stop-color="#F35418"/>
<stop offset="0.144531" stop-color="#F35518"/>
<stop offset="0.148438" stop-color="#F35618"/>
<stop offset="0.152344" stop-color="#F35618"/>
<stop offset="0.15625" stop-color="#F35719"/>
<stop offset="0.160156" stop-color="#F35719"/>
<stop offset="0.164062" stop-color="#F35819"/>
<stop offset="0.167969" stop-color="#F35819"/>
<stop offset="0.171875" stop-color="#F35919"/>
<stop offset="0.175781" stop-color="#F35A19"/>
<stop offset="0.179688" stop-color="#F35A19"/>
<stop offset="0.183594" stop-color="#F35B19"/>
<stop offset="0.1875" stop-color="#F35B19"/>
<stop offset="0.191406" stop-color="#F45C19"/>
<stop offset="0.195312" stop-color="#F45C1A"/>
<stop offset="0.199219" stop-color="#F45D1A"/>
<stop offset="0.203125" stop-color="#F45E1A"/>
<stop offset="0.207031" stop-color="#F45E1A"/>
<stop offset="0.210938" stop-color="#F45F1A"/>
<stop offset="0.214844" stop-color="#F45F1A"/>
<stop offset="0.21875" stop-color="#F4601A"/>
<stop offset="0.222656" stop-color="#F4601A"/>
<stop offset="0.226563" stop-color="#F4611A"/>
<stop offset="0.230469" stop-color="#F4621B"/>
<stop offset="0.234375" stop-color="#F4621B"/>
<stop offset="0.238281" stop-color="#F4631B"/>
<stop offset="0.242188" stop-color="#F4631B"/>
<stop offset="0.246094" stop-color="#F4641B"/>
<stop offset="0.25" stop-color="#F4641B"/>
<stop offset="0.253906" stop-color="#F4651B"/>
<stop offset="0.257812" stop-color="#F4661B"/>
<stop offset="0.261719" stop-color="#F4661B"/>
<stop offset="0.265625" stop-color="#F4671C"/>
<stop offset="0.269531" stop-color="#F4671C"/>
<stop offset="0.273438" stop-color="#F4681C"/>
<stop offset="0.277344" stop-color="#F4681C"/>
<stop offset="0.28125" stop-color="#F4691C"/>
<stop offset="0.285156" stop-color="#F46A1C"/>
<stop offset="0.289062" stop-color="#F46A1C"/>
<stop offset="0.292969" stop-color="#F56B1C"/>
<stop offset="0.296875" stop-color="#F56B1C"/>
<stop offset="0.300781" stop-color="#F56C1D"/>
<stop offset="0.304688" stop-color="#F56D1D"/>
<stop offset="0.308594" stop-color="#F56D1D"/>
<stop offset="0.3125" stop-color="#F56E1D"/>
<stop offset="0.316406" stop-color="#F56E1D"/>
<stop offset="0.320312" stop-color="#F56F1D"/>
<stop offset="0.324219" stop-color="#F56F1D"/>
<stop offset="0.328125" stop-color="#F5701D"/>
<stop offset="0.332031" stop-color="#F5711D"/>
<stop offset="0.335938" stop-color="#F5711E"/>
<stop offset="0.339844" stop-color="#F5721E"/>
<stop offset="0.34375" stop-color="#F5721E"/>
<stop offset="0.347656" stop-color="#F5731E"/>
<stop offset="0.351563" stop-color="#F5731E"/>
<stop offset="0.355469" stop-color="#F5741E"/>
<stop offset="0.359375" stop-color="#F5751E"/>
<stop offset="0.363281" stop-color="#F5751E"/>
<stop offset="0.367188" stop-color="#F5761E"/>
<stop offset="0.371094" stop-color="#F5761F"/>
<stop offset="0.375" stop-color="#F5771F"/>
<stop offset="0.378906" stop-color="#F5771F"/>
<stop offset="0.382812" stop-color="#F5781F"/>
<stop offset="0.386719" stop-color="#F5791F"/>
<stop offset="0.390625" stop-color="#F6791F"/>
<stop offset="0.394531" stop-color="#F67A1F"/>
<stop offset="0.398438" stop-color="#F67A1F"/>
<stop offset="0.402344" stop-color="#F67B1F"/>
<stop offset="0.40625" stop-color="#F67B20"/>
<stop offset="0.410156" stop-color="#F67C20"/>
<stop offset="0.414062" stop-color="#F67D20"/>
<stop offset="0.417969" stop-color="#F67D20"/>
<stop offset="0.421875" stop-color="#F67E20"/>
<stop offset="0.425781" stop-color="#F67E20"/>
<stop offset="0.429688" stop-color="#F67F20"/>
<stop offset="0.433594" stop-color="#F67F20"/>
<stop offset="0.4375" stop-color="#F68020"/>
<stop offset="0.441406" stop-color="#F68121"/>
<stop offset="0.445313" stop-color="#F68121"/>
<stop offset="0.449219" stop-color="#F68221"/>
<stop offset="0.453125" stop-color="#F68221"/>
<stop offset="0.457031" stop-color="#F68321"/>
<stop offset="0.460938" stop-color="#F68421"/>
<stop offset="0.464844" stop-color="#F68421"/>
<stop offset="0.46875" stop-color="#F68521"/>
<stop offset="0.472656" stop-color="#F68521"/>
<stop offset="0.476562" stop-color="#F68622"/>
<stop offset="0.480469" stop-color="#F68622"/>
<stop offset="0.484375" stop-color="#F68722"/>
<stop offset="0.488281" stop-color="#F68822"/>
<stop offset="0.492188" stop-color="#F78822"/>
<stop offset="0.496094" stop-color="#F78922"/>
<stop offset="0.5" stop-color="#F78922"/>
<stop offset="0.503906" stop-color="#F78A22"/>
<stop offset="0.507813" stop-color="#F78A22"/>
<stop offset="0.511719" stop-color="#F78B23"/>
<stop offset="0.515625" stop-color="#F78C23"/>
<stop offset="0.519531" stop-color="#F78C23"/>
<stop offset="0.523438" stop-color="#F78D23"/>
<stop offset="0.527344" stop-color="#F78D23"/>
<stop offset="0.53125" stop-color="#F78E23"/>
<stop offset="0.535156" stop-color="#F78E23"/>
<stop offset="0.539062" stop-color="#F78F23"/>
<stop offset="0.542969" stop-color="#F79023"/>
<stop offset="0.546875" stop-color="#F79023"/>
<stop offset="0.550781" stop-color="#F79124"/>
<stop offset="0.554688" stop-color="#F79124"/>
<stop offset="0.558594" stop-color="#F79224"/>
<stop offset="0.5625" stop-color="#F79224"/>
<stop offset="0.566406" stop-color="#F79324"/>
<stop offset="0.570312" stop-color="#F79424"/>
<stop offset="0.574219" stop-color="#F79424"/>
<stop offset="0.578125" stop-color="#F79524"/>
<stop offset="0.582031" stop-color="#F79524"/>
<stop offset="0.585938" stop-color="#F79625"/>
<stop offset="0.589844" stop-color="#F79625"/>
<stop offset="0.59375" stop-color="#F89725"/>
<stop offset="0.597656" stop-color="#F89825"/>
<stop offset="0.601562" stop-color="#F89825"/>
<stop offset="0.605469" stop-color="#F89925"/>
<stop offset="0.609375" stop-color="#F89925"/>
<stop offset="0.613281" stop-color="#F89A25"/>
<stop offset="0.617188" stop-color="#F89A25"/>
<stop offset="0.621094" stop-color="#F89B26"/>
<stop offset="0.625" stop-color="#F89C26"/>
<stop offset="0.628906" stop-color="#F89C26"/>
<stop offset="0.632812" stop-color="#F89D26"/>
<stop offset="0.636719" stop-color="#F89D26"/>
<stop offset="0.640625" stop-color="#F89E26"/>
<stop offset="0.644531" stop-color="#F89F26"/>
<stop offset="0.648438" stop-color="#F89F26"/>
<stop offset="0.652344" stop-color="#F8A026"/>
<stop offset="0.65625" stop-color="#F8A027"/>
<stop offset="0.660156" stop-color="#F8A127"/>
<stop offset="0.664062" stop-color="#F8A127"/>
<stop offset="0.667969" stop-color="#F8A227"/>
<stop offset="0.671875" stop-color="#F8A327"/>
<stop offset="0.675781" stop-color="#F8A327"/>
<stop offset="0.679688" stop-color="#F8A427"/>
<stop offset="0.683594" stop-color="#F8A427"/>
<stop offset="0.6875" stop-color="#F8A527"/>
<stop offset="0.691406" stop-color="#F8A528"/>
<stop offset="0.695313" stop-color="#F9A628"/>
<stop offset="0.699219" stop-color="#F9A728"/>
<stop offset="0.703125" stop-color="#F9A728"/>
<stop offset="0.707031" stop-color="#F9A828"/>
<stop offset="0.710938" stop-color="#F9A828"/>
<stop offset="0.714844" stop-color="#F9A928"/>
<stop offset="0.71875" stop-color="#F9A928"/>
<stop offset="0.722656" stop-color="#F9AA28"/>
<stop offset="0.726562" stop-color="#F9AB29"/>
<stop offset="0.730469" stop-color="#F9AB29"/>
<stop offset="0.734375" stop-color="#F9AC29"/>
<stop offset="0.738281" stop-color="#F9AC29"/>
<stop offset="0.742188" stop-color="#F9AD29"/>
<stop offset="0.75" stop-color="#F9AD29"/>
<stop offset="1" stop-color="#F9AD29"/>
</linearGradient>
</defs>
</svg>
