<svg width="32" height="32" viewBox="0 0 32 32" fill="none" xmlns="http://www.w3.org/2000/svg">
<g clip-path="url(#clip0_80_1645)">
<path d="M15.9441 32.0107L15.0147 31.214C13.7333 30.1411 2.54541 20.4788 2.54541 13.4111C2.54541 6.0112 8.54422 0.0123901 15.9441 0.0123901C23.344 0.0123901 29.3428 6.0112 29.3428 13.4111C29.3428 20.4789 18.1548 30.1412 16.8788 31.2193L15.9441 32.0107ZM15.9441 2.90958C10.147 2.91614 5.44922 7.61395 5.44266 13.411C5.44266 17.8511 12.3259 24.9441 15.9441 28.1906C19.5623 24.9428 26.4455 17.8458 26.4455 13.411C26.439 7.61395 21.7412 2.9162 15.9441 2.90958Z" fill="black"/>
<path d="M15.9439 18.7222C13.0107 18.7222 10.6328 16.3444 10.6328 13.4111C10.6328 10.4779 13.0107 8.09998 15.9439 8.09998C18.8772 8.09998 21.2551 10.4779 21.2551 13.4111C21.2551 16.3444 18.8772 18.7222 15.9439 18.7222ZM15.9439 10.7555C14.4773 10.7555 13.2884 11.9444 13.2884 13.411C13.2884 14.8777 14.4773 16.0666 15.9439 16.0666C17.4106 16.0666 18.5995 14.8777 18.5995 13.411C18.5995 11.9444 17.4106 10.7555 15.9439 10.7555Z" fill="black"/>
</g>
<defs>
<clipPath id="clip0_80_1645">
<rect width="32" height="32" fill="white"/>
</clipPath>
</defs>
</svg>
