<svg width="32" height="32" viewBox="0 0 32 32" fill="none" xmlns="http://www.w3.org/2000/svg">
<g clip-path="url(#clip0_89_2467)">
<path d="M32 17.0507V20H28.8933L28.2947 24.5253C28.032 26.5067 26.3267 28 24.3293 28H21.3333V32H4V25.7213C4 25.108 3.784 24.5107 3.39067 24.0387C1.204 21.4107 0 18.0827 0 14.6667H2.66667C2.66667 17.4613 3.652 20.184 5.44 22.332C6.23067 23.2813 6.66667 24.484 6.66667 25.7213V29.3333H18.6667V25.3333H24.3293C24.996 25.3333 25.564 24.836 25.652 24.1747L26.556 17.3333H29.2093C27.7413 14 25.8587 9.428 24.2973 7.52933C21.9707 4.424 18.472 2.66667 14.6667 2.66667V0C19.32 0 23.596 2.14667 26.4 5.89067C28.2773 8.15867 30.3387 13.3267 32 17.0507ZM2.66667 0H0V2.66667H2.66667V0ZM8 8H10.6667V5.33333H8V8ZM1.33333 12H4V9.33333H1.33333V12ZM2.66667 6.66667H5.33333V4H2.66667V6.66667ZM9.33333 0H6.66667V2.66667H9.33333V0ZM9.33333 18.6667C9.8 18.6667 10.244 18.5667 10.6667 18.416V26.6667H13.3333V17.292C14.32 17.156 15.2147 16.7 15.924 16H18.6667C20.872 16 22.6667 14.2053 22.6667 12C22.6667 10.3773 21.7093 8.95733 20.24 8.33333C19.284 7.19467 17.8507 6.55333 16.3187 6.68133C15.572 5.832 14.4973 5.33333 13.3333 5.33333V8C13.836 8 14.2907 8.28667 14.52 8.748L15.02 9.756C15.384 9.66267 16.316 9.31733 16.6667 9.33467C17.3253 9.33467 17.9427 9.66133 18.3187 10.2093L18.5867 10.6C19.3093 10.7293 20.0253 11.2 20.0013 12.0013C20.0013 12.736 19.4027 13.3347 18.668 13.3347H14.6587C14.208 14.0293 13.556 14.708 12.668 14.668C12.3213 14.6853 11.38 14.3387 11.0213 14.2467L10.5213 15.2547C10.2933 15.716 9.83867 16.0027 9.33467 16.0027C8.6 16.0027 8.00133 15.404 8.00133 14.6693C8.00133 13.9347 8.6 13.336 9.33467 13.336V10.6693C7.12933 10.6693 5.33467 12.464 5.33467 14.6693C5.33467 16.8747 7.12933 18.6693 9.33467 18.6693L9.33333 18.6667Z" fill="black"/>
</g>
<defs>
<clipPath id="clip0_89_2467">
<rect width="32" height="32" fill="white"/>
</clipPath>
</defs>
</svg>
