<svg width="32" height="32" viewBox="0 0 32 32" fill="none" xmlns="http://www.w3.org/2000/svg">
<g clip-path="url(#clip0_104_1710)">
<path d="M8 23.3333C8 24.0693 7.40267 24.6667 6.66667 24.6667C5.93067 24.6667 5.33333 24.0693 5.33333 23.3333C5.33333 22.5973 5.93067 22 6.66667 22C7.40267 22 8 22.5973 8 23.3333ZM10.6667 21.3333C9.93067 21.3333 9.33333 21.9307 9.33333 22.6667C9.33333 23.4027 9.93067 24 10.6667 24C11.4027 24 12 23.4027 12 22.6667C12 21.9307 11.4027 21.3333 10.6667 21.3333ZM9.33333 25.3333C8.59733 25.3333 8 25.9307 8 26.6667C8 27.4027 8.59733 28 9.33333 28C10.0693 28 10.6667 27.4027 10.6667 26.6667C10.6667 25.9307 10.0693 25.3333 9.33333 25.3333ZM32 10.6667V32H15.0387C15.9053 31.2373 16.6453 30.3387 17.228 29.3333H22.6667V10.6667C22.6667 10.1973 22.7627 9.752 22.912 9.33333H12C11.2653 9.33333 10.6667 9.932 10.6667 10.6667H8C8 8.46133 9.79467 6.66667 12 6.66667H19.9507L20.8253 0H29.3333V2.66667H23.1773L22.5893 6.66667H28.0013C30.2067 6.66667 32 8.46133 32 10.6667ZM29.3333 10.6667C29.3333 9.932 28.736 9.33333 28 9.33333H26.6667C25.9307 9.33333 25.3333 9.932 25.3333 10.6667V29.3333H29.3333V10.6667ZM16 24C16 28.412 12.412 32 8 32C3.588 32 0 28.412 0 24C0 20.184 2.688 16.988 6.268 16.1947C5.952 15.352 5.564 14.7507 5.55733 14.7413L7.772 13.256C7.812 13.3147 8.40267 14.208 8.84667 15.4867C9.02133 15.164 9.22267 14.852 9.48933 14.5853C10.9213 13.1547 13.3333 13.3333 13.3333 13.3333C13.3333 13.3333 13.5067 15.712 12.1053 17.1467C14.4333 18.5467 16 21.0907 16 24ZM13.3333 24C13.3333 21.0587 10.9413 18.6667 8 18.6667C5.05867 18.6667 2.66667 21.0587 2.66667 24C2.66667 26.9413 5.05867 29.3333 8 29.3333C10.9413 29.3333 13.3333 26.9413 13.3333 24Z" fill="black"/>
</g>
<defs>
<clipPath id="clip0_104_1710">
<rect width="32" height="32" fill="white"/>
</clipPath>
</defs>
</svg>
