<svg width="32" height="32" viewBox="0 0 32 32" fill="none" xmlns="http://www.w3.org/2000/svg">
<g clip-path="url(#clip0_80_1695)">
<path d="M1.92525 8.89202C1.4788 9.01958 1.07339 9.26151 0.749135 9.59386C0.424884 9.92622 0.193034 10.3375 0.0765247 10.7869C-0.0399844 11.2364 -0.0371139 11.7085 0.0848522 12.1565C0.206818 12.6046 0.443653 13.013 0.771921 13.3413L5.32125 17.8853V26.6667H14.1119L18.6919 31.24C18.9377 31.488 19.2302 31.6849 19.5523 31.8194C19.8745 31.9539 20.2201 32.0235 20.5693 32.024C20.7987 32.0236 21.0272 31.994 21.2493 31.936C21.6985 31.8229 22.1101 31.5933 22.4425 31.2705C22.7748 30.9478 23.0163 30.5431 23.1426 30.0973L31.9879 0.0280151L1.92525 8.89202ZM2.66659 11.456L25.3706 4.76268L7.99059 22.1147V16.7813L2.66659 11.456ZM20.5866 29.3547L15.2173 24H9.88392L27.2613 6.63735L20.5866 29.3547Z" fill="black"/>
</g>
<defs>
<clipPath id="clip0_80_1695">
<rect width="32" height="32" fill="white"/>
</clipPath>
</defs>
</svg>
