<svg width="32" height="32" viewBox="0 0 32 32" fill="none" xmlns="http://www.w3.org/2000/svg">
<g clip-path="url(#clip0_89_2465)">
<path d="M28 21.5227V12C28 5.38267 22.616 0 16 0C11.588 0 8 3.588 8 8C8 12.412 11.588 16 16 16C18.7813 16 21.232 14.572 22.6667 12.4133V12C22.6667 10.5107 22.1587 9.148 21.3293 8.03733C21.3093 10.9613 18.928 13.3333 16 13.3333C13.072 13.3333 10.6667 10.9413 10.6667 8C10.6667 5.05867 13.0587 2.66667 16 2.66667C21.1467 2.66667 25.3333 6.85467 25.3333 12V21.5227C23.04 22.1187 21.3333 24.188 21.3333 26.6667V32H32V26.6667C32 24.188 30.2933 22.1187 28 21.5227ZM29.3333 29.3333H24V26.6667C24 25.196 25.196 24 26.6667 24C28.1373 24 29.3333 25.196 29.3333 26.6667V29.3333ZM6.66667 21.5227V13.152C5.81867 11.6227 5.33333 9.868 5.33333 8C5.33333 7.38933 5.396 6.79333 5.496 6.21067C4.54533 7.92933 4 9.90133 4 12V21.5227C1.70667 22.1187 0 24.188 0 26.6667V32H10.6667V26.6667C10.6667 24.188 8.96 22.1187 6.66667 21.5227ZM8 29.3333H2.66667V26.6667C2.66667 25.196 3.86267 24 5.33333 24C6.804 24 8 25.196 8 26.6667V29.3333Z" fill="black"/>
</g>
<defs>
<clipPath id="clip0_89_2465">
<rect width="32" height="32" fill="white"/>
</clipPath>
</defs>
</svg>
