<svg width="32" height="32" viewBox="0 0 32 32" fill="none" xmlns="http://www.w3.org/2000/svg">
<g clip-path="url(#clip0_74_908)">
<path d="M31.9599 1.256L31.8866 -0.0200043L30.6079 -4.27291e-06C21.6653 0.138662 17.7266 5.64133 15.9999 10.14C14.2733 5.64133 10.3346 0.138662 1.39195 -4.27291e-06L0.113282 -0.0200043L0.0399484 1.256C-0.252052 6.32 1.03862 10.3107 3.87195 13.1133C7.38128 16.584 12.2733 17.2267 14.6666 17.32V32H17.3333V17.32C19.7266 17.2267 24.6173 16.584 28.128 13.1133C30.9613 10.3093 32.2519 6.32 31.9599 1.256ZM5.73595 11.2053C3.71728 9.20266 2.68928 6.35733 2.66662 2.73466C11.7839 3.56133 13.9853 11.3733 14.5093 14.6373C12.4266 14.5173 8.46662 13.9147 5.73595 11.204V11.2053ZM17.4906 14.6387C18.0146 11.3733 20.216 3.56133 29.3333 2.736C29.3106 6.35866 28.2826 9.204 26.264 11.2067C23.5319 13.9187 19.5733 14.5187 17.4906 14.6387Z" fill="#F5621C"/>
</g>
<defs>
<clipPath id="clip0_74_908">
<rect width="32" height="32" fill="white"/>
</clipPath>
</defs>
</svg>
