<svg width="32" height="32" viewBox="0 0 32 32" fill="none" xmlns="http://www.w3.org/2000/svg">
<g clip-path="url(#clip0_48_489)">
<path d="M26.5985 3.52533L15.9998 0.0119934L5.40117 3.52533C4.60597 3.78687 3.91357 4.29264 3.42256 4.97062C2.93155 5.6486 2.66697 6.46422 2.6665 7.30133V16C2.6665 26.032 14.9332 31.572 15.4585 31.8027L15.9305 32.012L16.4212 31.8493C16.9492 31.6733 29.3332 27.436 29.3332 16V7.30133C29.3327 6.46422 29.0681 5.6486 28.5771 4.97062C28.0861 4.29264 27.3937 3.78687 26.5985 3.52533ZM26.6665 16C26.6665 24.3507 18.2012 28.288 16.0625 29.148C13.9198 28.0773 5.33317 23.3253 5.33317 16V7.30133C5.33288 7.02212 5.42095 6.74999 5.58478 6.52389C5.7486 6.2978 5.97976 6.12935 6.24517 6.04266L15.9998 2.80799L25.7545 6.04266C26.0199 6.12935 26.2511 6.2978 26.4149 6.52389C26.5787 6.74999 26.6668 7.02212 26.6665 7.30133V16Z" fill="black"/>
<path d="M17.3332 10.6667H14.6665V14.6667H10.6665V17.3333H14.6665V21.3333H17.3332V17.3333H21.3332V14.6667H17.3332V10.6667Z" fill="black"/>
</g>
<defs>
<clipPath id="clip0_48_489">
<rect width="32" height="32" fill="white"/>
</clipPath>
</defs>
</svg>
