<svg width="32" height="32" viewBox="0 0 32 32" fill="none" xmlns="http://www.w3.org/2000/svg">
<path d="M24 0H18.6667V1.33333C18.6667 2.04058 18.3857 2.71885 17.8856 3.21895C17.3855 3.71905 16.7072 4 16 4C15.2928 4 14.6145 3.71905 14.1144 3.21895C13.6143 2.71885 13.3333 2.04058 13.3333 1.33333V0H8C6.93913 0 5.92172 0.421427 5.17157 1.17157C4.42143 1.92172 4 2.93913 4 4V32H13.3333V30.6667C13.3333 29.9594 13.6143 29.2811 14.1144 28.781C14.6145 28.281 15.2928 28 16 28C16.7072 28 17.3855 28.281 17.8856 28.781C18.3857 29.2811 18.6667 29.9594 18.6667 30.6667V32H28V4C28 2.93913 27.5786 1.92172 26.8284 1.17157C26.0783 0.421427 25.0609 0 24 0ZM21.1653 29.3333C20.8707 28.1873 20.2033 27.1718 19.2681 26.4467C18.333 25.7216 17.1833 25.3281 16 25.3281C14.8167 25.3281 13.667 25.7216 12.7319 26.4467C11.7967 27.1718 11.1293 28.1873 10.8347 29.3333H6.66667V22.6667H10.6667V20H6.66667V4C6.66667 3.64638 6.80714 3.30724 7.05719 3.05719C7.30724 2.80714 7.64638 2.66667 8 2.66667H10.8347C11.1293 3.8127 11.7967 4.8282 12.7319 5.5533C13.667 6.2784 14.8167 6.67193 16 6.67193C17.1833 6.67193 18.333 6.2784 19.2681 5.5533C20.2033 4.8282 20.8707 3.8127 21.1653 2.66667H24C24.3536 2.66667 24.6928 2.80714 24.9428 3.05719C25.1929 3.30724 25.3333 3.64638 25.3333 4V20H21.3333V22.6667H25.3333V29.3333H21.1653Z" fill="black"/>
<path d="M18.6668 20H13.3335V22.6667H18.6668V20Z" fill="black"/>
</svg>
