<svg width="32" height="32" viewBox="0 0 32 32" fill="none" xmlns="http://www.w3.org/2000/svg">
<path d="M29.9533 13.1547C27.1013 13.1547 24.4573 12.2427 22.3 10.6933V21.8733C22.3 27.4573 17.7573 31.9987 12.1747 31.9987C10.0173 31.9987 8.01598 31.3187 6.37198 30.164C3.76132 28.3307 2.04932 25.2987 2.04932 21.8733C2.04932 16.2893 6.59198 11.7467 12.176 11.7467C12.64 11.7467 13.0933 11.7853 13.54 11.8453V13.148V17.4613C13.108 17.3267 12.652 17.248 12.176 17.248C9.62665 17.248 7.55198 19.3227 7.55198 21.8733C7.55198 23.6493 8.55998 25.192 10.032 25.9667C10.6733 26.304 11.4027 26.4973 12.1773 26.4973C14.668 26.4973 16.7 24.516 16.7933 22.0467L16.7973 0H22.2987C22.2987 0.477333 22.3453 0.942667 22.428 1.396C22.816 3.492 24.06 5.29067 25.784 6.41467C26.984 7.19733 28.416 7.65467 29.952 7.65467L29.9533 13.1547Z" fill="black"/>
</svg>
