<svg width="32" height="32" viewBox="0 0 32 32" fill="none" xmlns="http://www.w3.org/2000/svg">
<g opacity="0.7">
<path d="M32 16.8654C32.0002 16.1489 31.885 15.4371 31.6587 14.7574L29.8733 9.40137C29.6078 8.60502 29.0984 7.91239 28.4174 7.42159C27.7363 6.93079 26.9181 6.66669 26.0787 6.66671H22.6667V5.33337C22.6667 4.27251 22.2452 3.25509 21.4951 2.50495C20.7449 1.7548 19.7275 1.33337 18.6667 1.33337H4C2.93913 1.33337 1.92172 1.7548 1.17157 2.50495C0.421427 3.25509 0 4.27251 0 5.33337L0 26C0.0114068 26.9219 0.294302 27.82 0.813318 28.5819C1.33233 29.3439 2.06444 29.936 2.91812 30.2841C3.77179 30.6323 4.70915 30.7211 5.61302 30.5394C6.51688 30.3577 7.34714 29.9137 8 29.2627C8.65286 29.9137 9.48312 30.3577 10.387 30.5394C11.2908 30.7211 12.2282 30.6323 13.0819 30.2841C13.9356 29.936 14.6677 29.3439 15.1867 28.5819C15.7057 27.82 15.9886 26.9219 16 26V25.3334H20V26C20 27.2377 20.4917 28.4247 21.3668 29.2999C22.242 30.175 23.429 30.6667 24.6667 30.6667C25.9043 30.6667 27.0913 30.175 27.9665 29.2999C28.8417 28.4247 29.3333 27.2377 29.3333 26V25.3334H32V16.8654ZM26.0787 9.33337C26.3584 9.33359 26.631 9.42177 26.8578 9.58544C27.0847 9.74911 27.2543 9.97998 27.3427 10.2454L28.8173 14.6667H22.6667V9.33337H26.0787ZM2.66667 5.33337C2.66667 4.97975 2.80714 4.64061 3.05719 4.39056C3.30724 4.14052 3.64638 4.00004 4 4.00004H18.6667C19.0203 4.00004 19.3594 4.14052 19.6095 4.39056C19.8595 4.64061 20 4.97975 20 5.33337V22.6667H2.66667V5.33337ZM4.66667 28C4.13623 28 3.62753 27.7893 3.25245 27.4143C2.87738 27.0392 2.66667 26.5305 2.66667 26V25.3334H6.66667V26C6.66667 26.5305 6.45595 27.0392 6.08088 27.4143C5.70581 27.7893 5.1971 28 4.66667 28ZM13.3333 26C13.3333 26.5305 13.1226 27.0392 12.7475 27.4143C12.3725 27.7893 11.8638 28 11.3333 28C10.8029 28 10.2942 27.7893 9.91912 27.4143C9.54405 27.0392 9.33333 26.5305 9.33333 26V25.3334H13.3333V26ZM26.6667 26C26.6667 26.5305 26.456 27.0392 26.0809 27.4143C25.7058 27.7893 25.1971 28 24.6667 28C24.1362 28 23.6275 27.7893 23.2525 27.4143C22.8774 27.0392 22.6667 26.5305 22.6667 26V25.3334H26.6667V26ZM22.6667 22.6667V17.3334H29.3333V22.6667H22.6667Z" fill="black"/>
</g>
</svg>
