<svg width="32" height="32" viewBox="0 0 32 32" fill="none" xmlns="http://www.w3.org/2000/svg">
<g clip-path="url(#clip0_48_479)">
<path d="M19.3333 3.33333C19.3333 1.492 20.8253 0 22.6667 0C24.508 0 26 1.492 26 3.33333C26 5.17467 24.508 6.66667 22.6667 6.66667C20.8253 6.66667 19.3333 5.17467 19.3333 3.33333ZM9.528 8H1.33333V10.6667H8.19467L9.528 8ZM14.6667 2.66667H2.66667V5.33333H14.6667V2.66667ZM32 14.6667V17.3333H25.9133L23.7133 13.6787L20.6253 21.076L24.088 23.2653V32H21.4213V24.7347L15.932 21.2627C14.2893 20.224 13.6307 18.164 14.3693 16.364L16.7067 10.6667H14.1587L11.86 15.2627L9.47467 14.0693L12.5093 7.99867H21.1467C22.54 7.99867 23.8533 8.74133 24.5733 9.936L27.4213 14.6653H32.0013L32 14.6667ZM21.9053 10.9187C21.684 10.764 21.4227 10.6667 21.1453 10.6667H19.5867L16.8347 17.376C16.588 17.976 16.808 18.6627 17.356 19.0093L18.3333 19.6267L21.9053 10.9173V10.9187ZM13.2 22.4013L12.5413 24H5.33333V26.6667H14.3267L15.3933 24.0773L14.5067 23.516C14.008 23.2013 13.5853 22.8147 13.2 22.4V22.4013ZM6.66667 13.3333H0V16H6.66667V13.3333Z" fill="black"/>
</g>
<defs>
<clipPath id="clip0_48_479">
<rect width="32" height="32" fill="white"/>
</clipPath>
</defs>
</svg>
